<svg width="184" height="62" viewBox="0 0 184 62" fill="none" xmlns="http://www.w3.org/2000/svg">
<path d="M41.9964 61.8751L44.8194 44.8704H50.5652C51.8937 44.8704 52.9426 45.1084 53.712 45.5844C54.487 46.0605 55.0101 46.7053 55.2813 47.5191C55.5581 48.3328 55.6134 49.2433 55.4474 50.2508C55.2813 51.2471 54.9243 52.1549 54.3763 52.9742C53.8338 53.7934 53.0976 54.4466 52.1677 54.9337C51.2433 55.4208 50.1223 55.6644 48.8049 55.6644H44.6866L44.9855 53.8377H49.0374C49.9452 53.8377 50.7036 53.6799 51.3124 53.3644C51.9213 53.0489 52.3974 52.6199 52.7406 52.0774C53.0838 51.535 53.3107 50.9261 53.4214 50.2508C53.5321 49.5644 53.5045 48.9555 53.3384 48.4241C53.1779 47.8872 52.843 47.4665 52.3337 47.162C51.83 46.852 51.1187 46.697 50.1998 46.697H46.5797L44.0556 61.8751H41.9964Z" fill="white"/>
<path d="M61.6975 44.8704L58.8745 61.8751H56.8153L59.6384 44.8704H61.6975Z" fill="white"/>
<path d="M62.4386 61.8751L62.7043 60.3805L74.1293 46.697H64.8631L65.162 44.8704H76.8859L76.6535 46.3649L65.1952 60.0484H74.4614L74.1625 61.8751H62.4386Z" fill="white"/>
<path d="M77.052 61.8751L77.3177 60.3805L88.7427 46.697H79.4765L79.7754 44.8704H91.4994L91.2669 46.3649L79.8086 60.0484H89.0749L88.776 61.8751H77.052Z" fill="white"/>
<path d="M92.9275 61.8751H90.7687L99.8357 44.8704H101.961L105.382 61.8751H103.223L100.533 47.5606H100.4L92.9275 61.8751ZM94.8206 55.2326H103.522L103.223 57.0593H94.5217L94.8206 55.2326Z" fill="white"/>
<path d="M108.031 61.8751L110.854 44.8704H116.6C117.928 44.8704 118.98 45.0946 119.755 45.5429C120.535 45.9913 121.064 46.6085 121.341 47.3945C121.623 48.1805 121.681 49.0773 121.515 50.0847C121.349 51.0811 120.995 51.9667 120.452 52.7417C119.915 53.5166 119.185 54.1255 118.26 54.5684C117.341 55.0112 116.223 55.2326 114.906 55.2326H110.256L110.588 53.3727H115.171C116.079 53.3727 116.832 53.2399 117.43 52.9742C118.028 52.7085 118.493 52.3293 118.825 51.8367C119.157 51.344 119.378 50.76 119.489 50.0847C119.6 49.3983 119.569 48.8033 119.398 48.2995C119.232 47.7903 118.891 47.3973 118.376 47.1205C117.867 46.8382 117.153 46.697 116.234 46.697H112.614L110.09 61.8751H108.031ZM117.297 54.2362L120.22 61.8751H117.828L114.972 54.2362H117.297Z" fill="white"/>
<path d="M127.869 44.8704L125.046 61.8751H122.987L125.81 44.8704H127.869Z" fill="white"/>
<path d="M129.872 61.8751H127.713L136.78 44.8704H138.906L142.327 61.8751H140.168L137.478 47.5606H137.345L129.872 61.8751ZM131.765 55.2326H140.467L140.168 57.0593H131.466L131.765 55.2326Z" fill="white"/>
<path d="M17.4229 30.0909V12.6246H22.8849V35.769H20.1385C8.8132 35.769 4.27691 28.5479 3.81403 18.0867H0.234375V12.6246H9.24523V16.3277C9.24523 22.4996 10.3562 28.98 17.4229 30.0909Z" fill="#C1272D"/>
<path d="M38.0816 12.6246C41.5995 12.6246 44.4386 15.4945 44.4386 18.9816V35.769H31.7246C28.2067 35.769 25.3676 32.8991 25.3676 29.412V12.6246H38.0816ZM38.9765 30.3069V18.9816C38.9765 18.4879 38.5753 18.0867 38.0816 18.0867H30.8297V29.412C30.8297 29.9057 31.2309 30.3069 31.7246 30.3069H38.9765Z" fill="#C1272D"/>
<path d="M59.9209 18.0867V12.3778H65.3829V18.0867C65.3829 30.8315 57.483 35.2444 57.1436 35.4295L55.8475 36.1393L54.5514 35.4295C54.212 35.2444 46.312 30.8315 46.312 18.0867V12.3778H51.7741V18.0867C51.7741 24.5363 54.2428 28.0233 55.8475 29.5971C57.4522 28.0233 59.9209 24.5363 59.9209 18.0867Z" fill="#C1272D"/>
<path d="M80.8745 12.6246C84.3924 12.6246 87.2314 15.4945 87.2314 18.9816V35.769H74.5175C70.9995 35.769 68.1605 32.8991 68.1605 29.412V12.6246H80.8745ZM81.7694 30.3069V18.9816C81.7694 18.4879 81.3682 18.0867 80.8745 18.0867H73.6226V29.412C73.6226 29.9057 74.0237 30.3069 74.5175 30.3069H81.7694Z" fill="#C1272D"/>
<path d="M120.051 15.3402C120.051 17.5621 119.649 20.4937 117.458 22.7156H121.007V35.769H101.905V18.0867H98.3566V12.6246H120.051V15.3402ZM114.372 18.0867H107.367V22.0984C112.151 22.0675 113.848 20.8023 114.372 18.0867ZM115.545 30.3069V27.5604H107.367V30.3069H115.545Z" fill="#C1272D"/>
<path d="M123.189 27.5913V12.6246H142.29V18.4879C142.29 23.1476 138.495 26.9124 133.866 26.9124H128.651V27.5913C128.651 29.0725 129.885 30.3069 131.366 30.3069H142.29V35.769H131.366C126.861 35.769 123.189 32.0967 123.189 27.5913ZM128.651 18.0867V21.7898H133.866C135.501 21.7898 136.828 20.432 136.828 18.7965V18.0867H128.651Z" fill="#C1272D"/>
<path d="M143.832 18.0867V12.6246H163.365V18.0867H156.329V35.769H150.867V18.0867H143.832Z" fill="#C1272D"/>
<path d="M178.536 21.1109V12.6246H183.998V35.769H178.536V26.573H170.359V35.769H164.896V12.6246H170.359V21.1109H178.536Z" fill="#C1272D"/>
<path d="M86.0813 2.89843L82.4836 0.821289L78.6149 7.52198L82.2127 9.59912L86.0813 2.89843Z" fill="#C1272D"/>
</svg>
