<svg width="134" height="29" viewBox="0 0 134 29" fill="none" xmlns="http://www.w3.org/2000/svg">
<path d="M11.6537 1.25151H15.357V16.8605H13.4949C11.57 16.8605 9.92414 16.5691 8.55722 15.9864C7.20424 15.4036 6.08141 14.592 5.18873 13.5514C4.30999 12.4969 3.64745 11.2412 3.20111 9.78441C2.76872 8.3137 2.51067 6.6973 2.42699 4.93523H0V1.25151H6.10931V3.74895C6.10931 4.78954 6.17208 5.8232 6.29761 6.84992C6.42314 7.87665 6.68119 8.82012 7.07173 9.68035C7.47623 10.5267 8.04113 11.2482 8.76644 11.8448C9.49175 12.4414 10.4542 12.8368 11.6537 13.0311V1.25151Z" fill="#C1272D"/>
<path d="M48.2654 1.25151H51.9687V16.8605H50.1066C48.1817 16.8605 46.5359 16.5691 45.1689 15.9864C43.816 15.4036 42.6931 14.592 41.8004 13.5514C40.9217 12.4969 40.2592 11.2412 39.8128 9.78441C39.3804 8.3137 39.1224 6.6973 39.0387 4.93523H36.6117V1.25151H42.721V3.74895C42.721 4.78954 42.7838 5.8232 42.9093 6.84992C43.0349 7.87665 43.2929 8.82012 43.6834 9.68035C44.0879 10.5267 44.6529 11.2482 45.3782 11.8448C46.1035 12.4414 47.0659 12.8368 48.2654 13.0311V1.25151Z" fill="#C1272D"/>
<path d="M90.6438 3.11824C90.6438 3.49286 90.6229 3.89522 90.581 4.32533C90.5392 4.74157 90.4555 5.17169 90.3299 5.61567C90.2044 6.04579 90.0231 6.4759 89.786 6.90601C89.5628 7.32225 89.2629 7.71768 88.8863 8.09229H91.2924V16.8957H78.3415V4.9705H75.9354V1.28679H90.6438V3.11824ZM82.0447 4.9705V7.67605C82.8537 7.67605 83.5372 7.62056 84.0951 7.50956C84.667 7.39856 85.1342 7.23207 85.4969 7.01007C85.8735 6.78808 86.1594 6.51059 86.3547 6.17759C86.5639 5.83073 86.7104 5.42837 86.7941 4.9705H82.0447ZM87.5891 11.3598H82.0447V13.212H87.5891V11.3598Z" fill="#C1272D"/>
<path d="M92.7713 1.28679H105.722V5.24106C105.722 6.03191 105.569 6.7742 105.262 7.46794C104.969 8.14779 104.565 8.7444 104.048 9.25776C103.532 9.77112 102.926 10.1804 102.228 10.4857C101.531 10.777 100.792 10.9227 100.01 10.9227H96.4746V11.3806C96.4746 11.8801 96.6559 12.3102 97.0185 12.6709C97.3812 13.0317 97.8136 13.212 98.3157 13.212H105.722V16.8957H98.3157C97.5486 16.8957 96.8302 16.7501 96.1607 16.4587C95.4912 16.1673 94.9054 15.7719 94.4033 15.2724C93.9011 14.7729 93.5036 14.1902 93.2107 13.5242C92.9178 12.8582 92.7713 12.1437 92.7713 11.3806V1.28679ZM96.4746 7.46794H100.01C100.289 7.46794 100.547 7.41937 100.785 7.32225C101.036 7.21125 101.252 7.06557 101.433 6.8852C101.614 6.69096 101.754 6.4759 101.852 6.24003C101.963 5.99029 102.019 5.72667 102.019 5.44918V4.9705H96.4746V7.46794Z" fill="#C1272D"/>
<path d="M106.767 1.28679H120.011V4.9705H115.241V16.8957H111.537V4.9705H106.767V1.28679Z" fill="#C1272D"/>
<path d="M130.297 1.28679H134V16.8957H130.297V10.6938H124.752V16.8957H121.049V1.28679H124.752V7.01007H130.297V1.28679Z" fill="#C1272D"/>
<path d="M27.0317 0.470908H27.5137L28.0904 0.488031L28.5036 0.513717L28.934 0.556527L29.4246 0.625023L29.7947 0.693518L30.1562 0.779138L30.4403 0.856196L30.8362 0.984625L31.1288 1.09593L31.3871 1.20724L31.6711 1.34423L31.8519 1.43841L32.0584 1.55828L32.2392 1.66958L32.4027 1.78089L32.5577 1.89219L32.6696 1.97781L32.8073 2.08912L32.9192 2.1833L33.1257 2.37166L33.3409 2.58571L33.4012 2.65421L33.4873 2.74839L33.5647 2.84257L33.6852 2.98812L33.8057 3.1508L33.8832 3.2621L33.9693 3.39053L34.0726 3.55321L34.1758 3.73301L34.2877 3.9385L34.3824 4.12686L34.5201 4.44365L34.6148 4.69195L34.7181 5.00018L34.7956 5.2656L34.873 5.57383L34.9333 5.8735L34.9849 6.19029L35.0366 6.61839L35.0796 7.12355L35.0968 7.37184V8.43353L35.0796 8.82738L35.0538 9.46096L35.0194 10.0689L34.9763 10.5569L34.9161 11.0192L34.8472 11.4131L34.7697 11.7727L34.7009 12.0381L34.6234 12.295L34.5287 12.5775L34.391 12.92L34.2533 13.2197L34.1242 13.468L34.0209 13.6478L33.8918 13.8532L33.8057 13.9817L33.7197 14.1015L33.5991 14.2642L33.5217 14.3584L33.4098 14.4954L33.3237 14.5896L33.2635 14.6581L33.143 14.7865L32.902 15.0262L32.8331 15.0862L32.7298 15.1803L32.6351 15.2574L32.5232 15.3516L32.3769 15.4629L32.2478 15.5571L32.1015 15.6598L31.9551 15.754L31.7744 15.8653L31.5764 15.9766L31.3526 16.0965L31.0858 16.2249L30.8448 16.3276L30.5349 16.4475L30.182 16.5674L29.8205 16.6701L29.5107 16.7472L29.1836 16.8157L28.8565 16.8756L28.3831 16.9441L27.9872 16.9869L27.574 17.0212L27.1006 17.0469L26.851 17.0554H25.93L25.5771 17.0383L25.1639 17.004L24.811 16.9612L24.4667 16.9099L24.0536 16.8328L23.7265 16.7557L23.3994 16.6701L23.0121 16.5503L22.7195 16.4475L22.4354 16.3362L22.1772 16.2249L21.9706 16.1307L21.8329 16.0622L21.5575 15.9167L21.3509 15.7968L21.1529 15.6769L20.8947 15.5057L20.7484 15.403L20.6107 15.3002L20.4988 15.2146L20.361 15.1033L20.2405 15.0005L20.1717 14.9406L20.0856 14.8636L20.0167 14.8036L19.879 14.6752L19.6552 14.4526L19.595 14.3841L19.4831 14.2642L19.4228 14.1957L19.3282 14.0844L19.2335 13.9645L19.156 13.8704L19.0269 13.6991L18.9236 13.5536L18.7687 13.3224L18.6654 13.1597L18.5363 12.9371L18.433 12.7488L18.3297 12.5518L18.192 12.2607L18.0629 11.9525L17.9338 11.6014L17.8391 11.3103L17.7444 10.9679L17.6669 10.6425L17.6067 10.3428L17.555 10.0089L17.5206 9.74351L17.4776 9.28972L17.469 9.19554V8.19379L17.5292 7.56877L17.6067 6.96943L17.6755 6.55846L17.7444 6.24167L17.8305 5.89919L17.9165 5.60808L18.0284 5.28273L18.1403 5.00018L18.2436 4.76045L18.3641 4.51215L18.4502 4.34091L18.6224 4.04124L18.8031 3.7587L18.9064 3.61315L18.9925 3.49328L19.0785 3.38197L19.1732 3.2621L19.3626 3.03949L19.4401 2.95387L19.5433 2.84257L19.793 2.59427L19.8618 2.53434L19.9307 2.46584L20.0254 2.38879L20.1459 2.28604L20.2664 2.19186L20.4471 2.05487L20.5934 1.95213L20.8258 1.79801L21.0496 1.66102L21.2648 1.54115L21.437 1.44697L21.6349 1.35279L21.8587 1.25005L22.1514 1.13018L22.5043 1.00175L22.7969 0.907567L23.1756 0.804824L23.5027 0.727766L23.9589 0.642147L24.3807 0.582213L24.6991 0.547965L25.0348 0.522279L25.4652 0.505155L26.1538 0.496593L27.0317 0.470908ZM26.5067 3.85288L25.8611 3.87L25.5771 3.88713L25.2586 3.92138L24.9832 3.96419L24.6217 4.04124L24.3204 4.12686L24.0708 4.21248L23.8212 4.31523L23.5716 4.43509L23.3822 4.53784L23.2187 4.64058L23.1154 4.70908L22.9605 4.82038L22.8486 4.91456L22.7625 4.98306L22.6592 5.07724L22.6248 5.10293V5.12005L22.5903 5.13717L22.5043 5.22279L22.444 5.29129L22.3493 5.39403L22.2719 5.48821L22.1858 5.59952L22.0825 5.74507L21.9964 5.8735L21.8673 6.09611L21.7985 6.22454L21.678 6.48996L21.5833 6.73826L21.5058 6.97799L21.4197 7.32047L21.3767 7.55164L21.3337 7.85131L21.3078 8.07392L21.282 8.42496V8.87019L21.2992 9.12704L21.3337 9.42671L21.3767 9.68357L21.4542 10.0175L21.5489 10.3257L21.6349 10.5569L21.7468 10.8137L21.8759 11.0706L21.9878 11.259L22.1169 11.4559L22.203 11.5758L22.2805 11.6785L22.401 11.8241L22.5559 11.9953L22.8055 12.2436L22.8744 12.3035L22.9863 12.3977L23.0982 12.4833L23.2015 12.5604L23.3736 12.6803L23.6146 12.8258L23.8901 12.9714L24.1138 13.0741L24.3721 13.1768L24.6819 13.2796L25.0004 13.3652L25.2931 13.4251L25.5685 13.468L25.8956 13.5022L26.171 13.5193H26.8252L27.2555 13.4936L27.5998 13.4594L27.9355 13.408L28.2368 13.3481L28.5638 13.2625L28.8737 13.1597L29.1061 13.0655L29.3471 12.9542L29.5365 12.8515L29.7 12.7488L29.8033 12.6803L29.9582 12.569L30.0701 12.4748L30.1648 12.3977L30.2251 12.3463V12.3292L30.2595 12.3121L30.4661 12.1066L30.5263 12.0381L30.6382 11.9011L30.7415 11.7641L30.8276 11.6357L30.9137 11.4987L30.9997 11.3446L31.0944 11.1562L31.1805 10.9507L31.2838 10.6425L31.344 10.4285L31.4043 10.1374L31.4473 9.87193L31.4817 9.54658L31.5076 9.15273L31.5248 8.72463L31.5334 8.45065V8.02255L31.5162 7.66295L31.4817 7.32047L31.4301 6.99512L31.3698 6.7297L31.2924 6.46428L31.1977 6.19886L31.103 5.98481L30.9825 5.75363L30.862 5.55671L30.7501 5.40259L30.664 5.29129L30.5694 5.17998L30.4919 5.09436L30.2853 4.88888L30.1906 4.81182L30.0787 4.71764L29.9238 4.60633L29.7775 4.51215L29.5709 4.39228L29.3127 4.26385L29.0286 4.15255L28.7618 4.06693L28.4606 3.98987L28.1937 3.9385L27.8925 3.89569L27.4965 3.86144L27.2986 3.85288H26.5067Z" fill="#C12B2E"/>
<path d="M22.9605 6.3016L23.0637 6.31872L23.6146 6.45571L24.0364 6.57558L24.4065 6.68689L24.9488 6.86669L25.3877 7.02937L25.689 7.14923L26.0161 7.28622L26.2657 7.39753L26.5583 7.53452L26.9543 7.73145L27.333 7.93693L27.5224 8.04824L27.6945 8.15098L27.858 8.25373L28.0044 8.34791L28.2109 8.4849L28.3659 8.5962L28.495 8.69038L28.5983 8.76744L28.7102 8.85306L28.8479 8.96437L28.9598 9.05855L29.0545 9.13561L29.1578 9.22979L29.2266 9.28972L29.3557 9.40959L29.6398 9.69213L29.7 9.76063L29.8033 9.87193L29.8808 9.96612L29.9755 10.0774L30.0873 10.223L30.2079 10.3857L30.2509 10.4541L30.2423 10.5055L30.1648 10.6939L30.0615 10.9079L29.9582 11.0792L29.8549 11.2247L29.7344 11.3703L29.6398 11.473L29.502 11.61L29.4074 11.6871L29.2783 11.7898L29.1233 11.8926L28.9512 11.9953L28.8049 12.0724L28.538 12.1837L28.3142 12.2607L28.0646 12.3292L27.8408 12.3806L27.815 12.372L27.7289 12.0638L27.6256 11.7556L27.5482 11.5501L27.4535 11.336L27.3502 11.122L27.2211 10.8822L27.1178 10.711L27.0145 10.5483L26.8768 10.3514L26.7391 10.1716L26.6444 10.0517L26.5325 9.92331L26.4292 9.80344L26.3001 9.66645L26.0161 9.3839L25.9472 9.32397L25.8611 9.24691L25.7665 9.16985L25.6373 9.05855L25.4136 8.88731L25.2586 8.776L25.1123 8.67326L24.8885 8.52771L24.6647 8.39072L24.4667 8.27941L24.2774 8.17667L24.1483 8.10817L23.7868 7.93693L23.4425 7.79138L23.0982 7.66295L22.7969 7.56021L22.4784 7.46602L22.4612 7.45746L22.4784 7.37184L22.5301 7.18348L22.6248 6.91806L22.7022 6.74682L22.7711 6.60983L22.8658 6.43859L22.9519 6.31016L22.9605 6.3016Z" fill="#C12B2E"/>
<path d="M26.8596 4.87175H27.0662L27.4535 4.88888L27.7892 4.92312L28.0646 4.96593L28.3745 5.03443L28.6241 5.11149L28.7876 5.17142L28.9684 5.24848L29.1319 5.3341L29.2869 5.42828L29.4074 5.5139L29.5279 5.60808L29.6398 5.71082L29.7689 5.83925L29.8463 5.93343L29.9324 6.04474L30.0271 6.19029L30.1132 6.34441L30.182 6.4814L30.2767 6.71257L30.3542 6.96087L30.4144 7.20917L30.4661 7.52596L30.4919 7.77426L30.5091 8.07392V8.49346L30.4919 8.8445L30.4747 9.06711L30.4144 9.01574L30.3111 8.913L30.2509 8.8445L30.0529 8.64757L29.9841 8.58764L29.9152 8.51915L29.8463 8.45921L29.7431 8.36503L29.6484 8.28797L29.5623 8.21091L29.4418 8.11673L29.2955 7.99687L29.1578 7.89412L28.8479 7.67151L28.4778 7.42322L28.2712 7.29479L28.0302 7.14923L27.7892 7.01224L27.5826 6.90094L27.3416 6.77251L26.9284 6.56702L26.6444 6.43859L26.2743 6.27591L25.8009 6.08755L25.4308 5.95056L25.2414 5.88206L24.9315 5.77932L24.6131 5.67658L24.2946 5.58239L23.9245 5.47965L23.8642 5.46253V5.4454L24.0106 5.35978L24.2171 5.25704L24.4581 5.16286L24.6389 5.10293L24.9488 5.02587L25.2414 4.9745L25.5168 4.94025L25.8439 4.91456L26.5325 4.88031L26.8596 4.87175Z" fill="#C12B2E"/>
<path d="M22.3321 8.49346L22.642 8.58764L22.9088 8.68182L23.2445 8.81881L23.4166 8.89587L23.6663 9.01574L23.9331 9.15273L24.1397 9.2726L24.3204 9.3839L24.5786 9.55514L24.7336 9.66645L24.8455 9.75207L24.966 9.84625L25.0779 9.94043L25.1984 10.0432L25.3103 10.1459L25.448 10.2743L25.5254 10.3514L25.5857 10.4199L25.646 10.4798L25.7062 10.5483L25.8095 10.6682L25.9214 10.8052L26.0419 10.9679L26.1624 11.1391L26.2743 11.3189L26.3604 11.4645L26.4809 11.6956L26.5583 11.8583L26.653 12.0895L26.7563 12.3977L26.7735 12.4748L26.7649 12.4833L26.5928 12.4919H26.4637L26.171 12.4833L25.8525 12.4576L25.5341 12.4148L25.1725 12.3378L24.9229 12.2693L24.6303 12.1665L24.3721 12.0552L24.1397 11.9354L23.9417 11.8155L23.7954 11.7128L23.6835 11.6271L23.5888 11.5501L23.5027 11.473L23.3994 11.3788L23.2789 11.259L23.2187 11.1905L23.124 11.0792L23.0121 10.9336L22.9088 10.7795L22.8313 10.6511L22.7281 10.4627L22.6248 10.2401L22.5301 9.9918L22.444 9.69213L22.3838 9.40959L22.3407 9.10136L22.3235 8.86162V8.50202L22.3321 8.49346Z" fill="#C12B2E"/>
<path d="M62.5934 1.60965H62.6192V8.28797L62.5761 8.27085L62.3351 8.13386L61.44 7.62014L61.2334 7.50027L60.9924 7.36328L60.7858 7.24341L60.562 7.11498L60.321 6.97799L60.0972 6.84956L59.8906 6.7297L59.6669 6.60127L59.4258 6.46428L59.2795 6.37866L57.4892 5.35122L57.3429 5.2656L57.2224 5.19711L57.2052 5.17142L57.2826 5.0858L57.3515 4.96593L57.4289 4.78613L57.4806 4.62346L57.5236 4.40941L57.5581 4.08405L57.5925 3.92994L57.6527 3.76726L57.713 3.65595L57.7818 3.59602L57.9454 3.51896L58.0917 3.47615L58.2466 3.45047L58.5135 3.42478L58.72 3.38197L58.9783 3.29635L59.1504 3.21073L59.2365 3.14224L59.2881 3.09943L59.3312 3.05662L59.4258 2.95387L59.5377 2.80832L59.6324 2.65421L59.7271 2.48297L59.8304 2.32029L59.9337 2.1833L60.0198 2.09768L60.0972 2.05487L60.2349 2.03775H60.3641L60.5104 2.05487L60.6825 2.09768L60.8719 2.15761L61.0871 2.20042L61.2764 2.21755H61.4572L61.6121 2.20042L61.8187 2.12336L61.9908 2.03775L62.1544 1.935L62.2749 1.84082L62.4298 1.72095L62.5848 1.61821L62.5934 1.60965ZM61.4572 2.73983L61.3711 2.77407L61.2936 2.84257L61.2592 2.91106L61.242 2.971V3.05662L61.2764 3.1508L61.3195 3.21073L61.3969 3.2621L61.483 3.28779L61.5949 3.27923L61.681 3.23642L61.7412 3.17649L61.7843 3.09087L61.7929 3.04806V2.971L61.7584 2.87682L61.7068 2.80832L61.6465 2.76551L61.5691 2.73983H61.4572ZM60.08 4.10974L59.9939 4.14399L59.9165 4.21248L59.882 4.28098L59.8648 4.34091V4.41797L59.8906 4.50359L59.9595 4.63202L60.08 4.8375L60.1919 5.02587L60.2694 5.09436L60.3641 5.12861H60.4673L60.5534 5.09436L60.6223 5.04299L60.6739 4.95737L60.6911 4.88888V4.82038L60.6567 4.71764L60.5362 4.51215L60.4157 4.2981L60.3382 4.1868L60.2522 4.12686L60.1919 4.10974H60.08ZM58.4274 4.6577L58.3413 4.69195L58.2639 4.76045L58.2208 4.84607L58.2122 4.88888V4.9745L58.2466 5.06868L58.2897 5.12861L58.3671 5.17998L58.4532 5.20567H58.5135L58.5995 5.17998L58.6684 5.13717L58.7287 5.06868L58.7545 5.00874L58.7631 4.96593V4.88888L58.7287 4.79469L58.6684 4.71764L58.5909 4.67483L58.5393 4.6577H58.4274ZM61.4228 5.47965L61.2936 5.50534L61.1731 5.54815L61.0785 5.59952L60.9666 5.68514L60.8805 5.77076L60.8202 5.85638L60.7428 6.00193L60.7083 6.1218L60.6911 6.22454V6.37866L60.7256 6.5499L60.7858 6.68689L60.8375 6.77251L60.9063 6.85813L60.9752 6.92662L61.0871 7.00368L61.2248 7.07218L61.3883 7.11498L61.4744 7.12355H61.5605L61.6982 7.10642L61.8531 7.05505L61.9908 6.97799L62.1113 6.87525L62.12 6.84956L62.1458 6.841L62.2232 6.7297L62.2921 6.59271L62.3265 6.47284L62.3437 6.36153V6.25879L62.3179 6.09611L62.2749 5.96768L62.2146 5.85638L62.1286 5.74507L62.0511 5.66801L61.9392 5.59096L61.7929 5.52246L61.6638 5.48821L61.6035 5.47965H61.4228Z" fill="#BE2C2F"/>
<path d="M63.1701 9.24691L63.2131 9.26404L63.4455 9.39246L63.6521 9.51233L64.9948 10.2829L65.167 10.3857L65.1583 10.4541L65.1239 10.5997L65.1067 10.7367V10.9593L65.1411 11.1648L65.21 11.3703L65.2789 11.5073L65.3563 11.6271L65.451 11.747L65.5629 11.8583L65.6748 11.9439L65.7867 12.0124L65.9244 12.0809L66.0621 12.1323L66.2429 12.1751L66.4064 12.1922H66.5269L66.7335 12.1665L66.897 12.1237L67.0606 12.0552L67.1897 11.9867L67.3102 11.9011L67.3963 11.8241L67.4565 11.7727L67.4909 11.7299L67.5426 11.747L67.7492 11.8669L67.9902 12.0039L68.4378 12.2607L68.5669 12.3378V12.372L68.498 12.4576L68.4033 12.6374L68.3345 12.8172L68.2914 12.9799L68.2656 13.1084L68.2312 13.4251L68.1967 13.5964L68.1365 13.7591L68.0676 13.8875L67.9988 13.9389L67.8438 14.0074L67.7061 14.0502L67.4995 14.0844L67.2499 14.1101L67.0175 14.1615L66.8626 14.2128L66.6905 14.2899L66.5958 14.3498L66.4839 14.4526L66.3892 14.5468L66.2945 14.6666L66.2171 14.7779L66.1138 14.9577L66.0019 15.1461L65.9072 15.2831L65.8125 15.3944L65.7178 15.4629L65.6145 15.4886H65.3563L65.2014 15.4629L64.9259 15.3773L64.7796 15.343L64.5817 15.3173H64.2718L64.1685 15.3345L63.9964 15.3944L63.8328 15.4715L63.6779 15.5656L63.5316 15.6769L63.3766 15.7968L63.1873 15.9252H63.1701V9.24691ZM63.9361 10.6853L63.85 10.7196L63.7726 10.7881L63.7381 10.8566L63.7209 10.9165V11.0021L63.7554 11.0963L63.7984 11.1562L63.8759 11.2076L63.9619 11.2333L64.0738 11.2247L64.1599 11.1819L64.2201 11.122L64.2632 11.0364L64.2718 10.9936V10.9165L64.2374 10.8223L64.1857 10.7538L64.1083 10.7024L64.048 10.6853H63.9361ZM64.2288 13.0484L64.1341 13.0827L64.0566 13.1426L64.005 13.2453L63.9964 13.2796V13.3652L64.0308 13.468L64.1513 13.6734L64.289 13.9132L64.3493 13.9902L64.4009 14.033L64.487 14.0673H64.6075L64.6936 14.033L64.771 13.9645L64.8141 13.8704L64.8227 13.8276V13.7676L64.7968 13.682L64.728 13.5536L64.6075 13.3481L64.4956 13.1597L64.4267 13.0912L64.3493 13.057L64.3062 13.0484H64.2288ZM65.8642 13.1512L65.7781 13.1854L65.7006 13.2539L65.6662 13.3224L65.649 13.3823V13.468L65.6834 13.5621L65.7264 13.6221L65.8039 13.6734L65.89 13.6991H65.9588L66.0449 13.6734L66.1138 13.6221L66.1654 13.5621L66.1912 13.5022L66.1998 13.4594V13.3823L66.1654 13.2882L66.1052 13.2111L66.0277 13.1683L65.9761 13.1512H65.8642Z" fill="#BE2C2F"/>
<path d="M69.0575 5.53959L69.1091 5.55671L69.2554 5.64233L69.4362 5.7622L69.5309 5.83925L69.6084 5.92487L69.6428 5.99337L69.66 6.13892V6.2331L69.6428 6.37866L69.5997 6.55846L69.5309 6.78107L69.4965 6.95231L69.4792 7.11498V7.38041L69.5051 7.5174L69.5567 7.66295L69.6514 7.85987L69.7375 7.99687L69.8494 8.14242L69.9526 8.26229L70.0387 8.38215L70.1248 8.54483L70.1764 8.68182L70.1936 8.776L70.1506 8.93012L70.0645 9.10992L69.9785 9.23835L69.8838 9.34966L69.7719 9.48665L69.6772 9.6322L69.5739 9.82912L69.5051 10.0089L69.4792 10.1545V10.4456L69.5137 10.6768L69.5653 10.8737L69.6256 11.0706L69.6514 11.2162V11.4816L69.6342 11.5586L69.5825 11.6357L69.5223 11.7042L69.4104 11.7898L69.2468 11.8926L69.1005 11.9782L69.0919 11.9867L69.0317 11.9782L68.7906 11.8412L68.3431 11.5843L68.1365 11.4645L67.9127 11.336L67.7836 11.259L67.775 11.2333L67.8094 11.122L67.8352 10.9679L67.8438 10.8737V10.7367L67.818 10.5312L67.775 10.3685L67.7061 10.2059L67.6373 10.0774L67.5512 9.95755L67.4565 9.85481L67.3704 9.76919L67.2413 9.67501L67.095 9.58939L66.9056 9.51233L66.7335 9.46952L66.613 9.4524H66.3634L66.1568 9.48665L65.9502 9.55514L65.8125 9.62364L65.692 9.7007L65.6145 9.76063L65.5285 9.83769L65.451 9.91474L65.3133 9.84625L65.0809 9.70926L64.8829 9.59795L64.6763 9.47808L63.7812 8.96437L63.5746 8.8445L63.4541 8.776L63.4627 8.75032L63.6607 8.63901L63.8672 8.51915L64.3148 8.26229L64.5214 8.14242L64.7624 8.00543L64.9862 7.877L65.1928 7.75713L65.4166 7.6287L65.5973 7.52596L65.9674 7.31191L66.1912 7.18348L66.4322 7.04649L66.6388 6.92662L66.8626 6.79819L67.1036 6.6612L67.3102 6.54133L67.4909 6.43859L67.6975 6.31872L67.9385 6.18173L68.0848 6.09611L68.2656 5.99337L68.4894 5.86494L68.696 5.74507L68.9198 5.61664L69.0575 5.53959ZM67.7578 7.12355L67.6287 7.14923L67.4909 7.2006L67.3877 7.26054L67.3016 7.32903L67.2155 7.41465L67.1553 7.50027L67.0864 7.6287L67.052 7.72288L67.0261 7.88556V8.03111L67.052 8.15954L67.095 8.28797L67.1639 8.40784L67.2585 8.51915L67.3532 8.60476L67.4823 8.68182L67.6114 8.73319L67.7233 8.75888L67.7922 8.76744H67.8955L68.0246 8.75032L68.1623 8.70751L68.2828 8.64757L68.3775 8.57908L68.4205 8.54483V8.52771L68.455 8.51058L68.541 8.39928L68.6099 8.27941L68.6529 8.15098L68.6788 7.99687V7.89412L68.6615 7.76569L68.6099 7.61158L68.541 7.48315L68.4464 7.37184L68.3861 7.31191L68.2742 7.23485L68.1537 7.17492L68.0418 7.14067L67.9385 7.12355H67.7578ZM65.0809 8.28797L65.0034 8.3051L64.9346 8.33934L64.8657 8.40784L64.8313 8.4849L64.8227 8.51915V8.60476L64.8485 8.69038L64.969 8.90443L65.0895 9.10992L65.1497 9.2041L65.1928 9.24691L65.2358 9.28116L65.2961 9.30685L65.3907 9.31541L65.4682 9.29828L65.5457 9.25547L65.6145 9.17842L65.649 9.06711V9.00718L65.6231 8.92156L65.5026 8.70751L65.3821 8.50202L65.3047 8.38215L65.2444 8.33078L65.167 8.29653L65.0809 8.28797ZM68.6185 9.86337L68.5324 9.89762L68.455 9.96612L68.4205 10.0346L68.4033 10.0945V10.1802L68.4378 10.2743L68.4808 10.3343L68.5583 10.3857L68.6443 10.4113H68.7046L68.7906 10.3857L68.8595 10.3428L68.9198 10.2743L68.9542 10.1716V10.0945L68.9198 10.0004L68.8681 9.93187L68.7906 9.8805L68.7304 9.86337H68.6185Z" fill="#BE2C2F"/>
<path d="M62.5934 9.24691H62.6192V15.9252L62.5761 15.9081L62.4384 15.8139L62.3351 15.7369L62.2146 15.6427L62.0683 15.5399L61.9134 15.4543L61.7671 15.3858L61.5863 15.3259L61.4744 15.3088H61.2936L61.0268 15.343L60.8116 15.3944L60.5706 15.4629L60.4243 15.4886L60.2694 15.4971L60.1144 15.48L60.037 15.4458L59.9423 15.3601L59.8304 15.2146L59.7185 15.0348L59.5894 14.8036L59.4947 14.6666L59.4172 14.5724L59.3226 14.4697L59.2451 14.3926L59.1418 14.3156L59.0041 14.2471L58.8233 14.1786L58.6254 14.1272L58.479 14.1015L58.2036 14.0759L58.0401 14.0416L57.8765 13.9817L57.7474 13.9132L57.7044 13.8618L57.6183 13.682L57.5753 13.5365L57.5494 13.3909L57.5236 13.1255L57.4806 12.9114L57.4031 12.6803L57.3171 12.5005L57.2482 12.4063L57.2138 12.3635L57.2224 12.3292L57.3257 12.2778L57.515 12.1665L59.3053 11.1391L59.5119 11.0192L60.1833 10.6339L60.4243 10.497L60.6309 10.3771L60.8116 10.2743L61.0182 10.1545L61.2592 10.0175L61.483 9.88906L61.6896 9.76919L61.9306 9.6322L62.1372 9.51233L62.3782 9.37534L62.5848 9.25547L62.5934 9.24691ZM61.3195 10.9593L61.242 10.9936L61.1731 11.0449L61.1301 11.1049L61.1043 11.1905V11.2675L61.1301 11.3532L61.2334 11.5415L61.3195 11.6871L61.4314 11.8754L61.5088 11.9439L61.6035 11.9782H61.7068L61.7843 11.9525L61.8617 11.8926L61.9134 11.8069L61.9306 11.7384V11.6699L61.8962 11.5758L61.8273 11.4473L61.7068 11.2418L61.6379 11.122L61.5691 11.0278L61.4916 10.9764L61.4314 10.9593H61.3195ZM59.4689 11.7812L59.3226 11.8069L59.1676 11.8583L59.0299 11.9268L58.918 12.0039L58.8319 12.0809L58.7889 12.1237L58.7028 12.2179L58.6082 12.372L58.5479 12.509L58.5135 12.6203L58.4876 12.7916V12.9799L58.5221 13.1683L58.5823 13.331L58.6512 13.4594L58.7373 13.5793L58.8061 13.6563L58.875 13.7163L59.0041 13.8104L59.1418 13.8789L59.2709 13.9303L59.4345 13.9645L59.5205 13.9731H59.641L59.796 13.956L59.9767 13.9046L60.1403 13.8276L60.2435 13.7591L60.3382 13.682L60.4329 13.5878L60.519 13.468L60.5878 13.3481L60.6481 13.1854L60.6739 13.0827L60.6911 12.9457V12.8001L60.6653 12.6289L60.6223 12.4833L60.5534 12.3378L60.4673 12.2093L60.3727 12.098L60.2866 12.021L60.1747 11.9439L60.0112 11.8583L59.8562 11.8069L59.7013 11.7812H59.4689ZM61.6465 13.2368L61.5777 13.2625L61.5002 13.3224L61.1129 13.7077L61.0699 13.7762L61.0526 13.8276V13.9474L61.0871 14.033L61.1473 14.1015L61.2162 14.1444L61.285 14.1615H61.3711L61.4658 14.1272L61.5519 14.0502L61.8015 13.8019L61.8359 13.7762V13.7591L61.8703 13.7419L61.9478 13.6478L61.9822 13.5536V13.4594L61.9478 13.3652L61.8703 13.2796L61.8015 13.2453L61.7757 13.2368H61.6465Z" fill="#BE2C2F"/>
<path d="M56.7059 5.53959L56.7576 5.55671L56.9297 5.65089L57.1363 5.77076L57.3773 5.90775L57.5236 5.99337L57.7044 6.09611L57.911 6.21598L58.152 6.35297L58.3585 6.47284L58.5995 6.60983L58.8061 6.7297L59.0471 6.86669L59.2537 6.98656L59.4345 7.0893L59.641 7.20917L59.882 7.34616L60.0886 7.46602L61.6552 8.36503L61.8187 8.45921L62.0253 8.57908L62.2491 8.70751L62.3265 8.75888L62.3179 8.78457L62.12 8.89587L61.9134 9.01574L61.6896 9.14417L61.483 9.26404L61.2592 9.39246L61.0182 9.52946L60.6051 9.76919L60.3641 9.90618L59.9165 10.163L59.7099 10.2829L59.4689 10.4199L59.2623 10.5398L59.0213 10.6768L58.8147 10.7966L58.5737 10.9336L58.3671 11.0535L58.1261 11.1905L57.9196 11.3103L57.6786 11.4473L57.5322 11.533L57.2912 11.6699L57.0847 11.7898L56.8609 11.9182L56.7231 11.9953L56.6543 11.9611L56.4821 11.8583L56.3358 11.7556L56.2153 11.6528L56.1637 11.5758L56.1378 11.5073L56.1292 11.4302V11.2675L56.1551 11.0963L56.2067 10.9165L56.2497 10.7709L56.2842 10.6168L56.31 10.3857V10.1887L56.2928 10.0432L56.2239 9.85481L56.1551 9.70926L56.069 9.5637L55.9829 9.44384L55.8882 9.33253L55.8022 9.22979L55.7247 9.10992L55.6558 8.97293L55.5956 8.79313L55.6042 8.71607L55.6472 8.57908L55.7161 8.44209L55.7763 8.33934L55.871 8.21948L55.9829 8.09105L56.0776 7.95406L56.1378 7.85987L56.2239 7.68007L56.2842 7.5174L56.3014 7.43178L56.31 7.34616V7.13211L56.2842 6.91806L56.2411 6.7297L56.1637 6.47284L56.1378 6.33585L56.1292 6.26735V6.11324L56.1465 5.98481L56.1981 5.89919L56.2842 5.81357L56.3875 5.73651L56.5338 5.64233L56.6801 5.55671L56.7059 5.53959ZM57.8163 7.12355L57.6441 7.14923L57.4634 7.2006L57.3257 7.26054L57.1879 7.3376L57.0502 7.44034L56.9297 7.55164L56.8695 7.62014L56.7662 7.76569L56.6887 7.90268L56.6199 8.08249L56.5854 8.20235L56.5596 8.39928V8.60476L56.594 8.81881L56.6629 9.0243L56.7318 9.16129L56.8006 9.2726L56.8867 9.3839L56.9555 9.46096L57.033 9.51233L57.0933 9.53802H57.2138L57.2998 9.50377L57.3945 9.42671L57.4548 9.35822L57.4806 9.34109V9.32397H57.4978V9.30685L57.5236 9.29828L57.5753 9.23835L57.6183 9.2041L57.6269 9.18698H57.6613L57.7216 9.25547L58.0142 9.54658L58.1089 9.61508L58.1606 9.6322L58.2466 9.64076L58.3241 9.62364L58.4102 9.57227L59.0299 8.9558L59.0729 8.87875L59.0902 8.81025V8.75032L59.0643 8.6647L58.9955 8.57052L58.634 8.21091V8.18523L58.7028 8.1253L58.8922 7.93693L58.9524 7.85987L58.9783 7.79994L58.9869 7.77426V7.65439L58.9524 7.57733L58.8922 7.50027L58.7717 7.39753L58.6254 7.30335L58.4876 7.23485L58.3327 7.17492L58.1864 7.14067L58.0487 7.12355H57.8163ZM60.562 8.49346L60.4587 8.53627L60.278 8.63901L60.0714 8.75888L59.9853 8.81025L59.9165 8.87019L59.882 8.93868L59.8648 8.99862V9.08423L59.8993 9.17842L59.9595 9.24691L60.0025 9.28116L60.0628 9.30685L60.1575 9.31541L60.2349 9.29828L60.3382 9.24691L60.7083 9.03286L60.803 8.97293L60.8633 8.89587L60.8891 8.81881V8.70751L60.8547 8.62189L60.7772 8.53627L60.6997 8.50202L60.6653 8.49346H60.562Z" fill="#BE2C2F"/>
<path d="M63.1701 1.60965L63.2045 1.61821L63.368 1.72951L63.523 1.84938L63.609 1.91788L63.7381 2.0035L63.9103 2.09768L64.1255 2.1833L64.2288 2.20898L64.3234 2.21755H64.5128L64.6936 2.20042L64.9087 2.15761L65.1325 2.08912L65.2789 2.05487L65.4424 2.03775H65.5543L65.6834 2.05487L65.7523 2.08912L65.8555 2.1833L65.933 2.28604L66.0277 2.4316L66.2171 2.75695L66.3203 2.9025L66.4322 3.03093L66.5355 3.13368L66.6388 3.21073L66.7765 3.27923L66.897 3.3306L67.095 3.39053L67.2758 3.42478L67.5426 3.45047L67.6889 3.47615L67.8352 3.51896L67.9643 3.5789L68.0504 3.63027L68.1021 3.70733L68.1623 3.83576L68.214 4.007L68.2398 4.16967L68.2656 4.41797L68.3086 4.63202L68.3775 4.8375L68.4808 5.05155L68.5496 5.13717L68.5755 5.17142L68.5669 5.19711L68.3517 5.31697L68.1451 5.43684L67.9213 5.56527L67.7147 5.68514L67.4909 5.81357L67.2499 5.95056L67.0434 6.07043L66.8024 6.20742L66.57 6.34441L66.415 6.43003L66.2085 6.5499L65.9847 6.67833L65.7437 6.81532L65.5371 6.93518L64.8657 7.32047L64.6591 7.44034L64.4353 7.56877L64.1943 7.70576L63.7467 7.96262L63.5402 8.08249L63.1787 8.28797L63.1701 8.27941V1.60965ZM63.6607 3.28779L63.5746 3.32204L63.4971 3.39053L63.4541 3.47615L63.4455 3.5104V3.60458L63.4799 3.69876L63.523 3.7587L63.6004 3.81007L63.6779 3.83576H63.7467L63.8328 3.81007L63.9017 3.76726L63.9619 3.69876L63.9964 3.59602V3.51896L63.9619 3.42478L63.9103 3.35629L63.85 3.31348L63.7726 3.28779H63.6607ZM65.253 3.56177L65.0809 3.58746L64.9518 3.62171L64.8141 3.67308L64.6505 3.7587L64.53 3.84432L64.4095 3.94706L64.2976 4.06693L64.2029 4.20392L64.1255 4.34091L64.0566 4.51215L64.0136 4.69195L63.9964 4.82038V4.9745L64.0308 5.06868L64.0738 5.12861L64.1513 5.17998L64.1943 5.19711L64.246 5.20567L64.6763 5.21423L64.6849 5.79644L64.7194 5.89062L64.7624 5.95056L64.8399 6.00193L64.9432 6.02762H65.7953L65.8814 6.01049L65.9502 5.97624L66.0191 5.90775L66.0535 5.81357L66.0621 5.7622L66.0707 5.21423L66.4925 5.20567L66.5958 5.17998L66.6646 5.12861L66.7163 5.06868L66.7507 4.95737V4.85463L66.7335 4.70051L66.6991 4.55496L66.6474 4.40085L66.5441 4.20392L66.4581 4.08405L66.3548 3.96419L66.2515 3.87L66.1224 3.77582L65.9674 3.6902L65.7953 3.62171L65.6231 3.5789L65.494 3.56177H65.253Z" fill="#BE2C2F"/>
<path d="M62.5417 0H62.6192V0.993187L62.6106 1.01031L62.4298 1.08737L62.2577 1.18155L62.0941 1.29286L61.965 1.3956L61.8531 1.48122L61.7154 1.56684L61.5777 1.63533L61.4916 1.66958L61.3969 1.67814H61.3023L61.1387 1.66102L60.958 1.61821L60.6997 1.54115L60.5276 1.5069L60.4415 1.49834H60.1919L60.0112 1.52403L59.8906 1.55828L59.796 1.60965L59.6755 1.69527L59.5636 1.79801L59.5291 1.81513L59.5119 1.84938L59.4431 1.91788L59.3312 2.07199L59.2451 2.22611L59.1504 2.40591L59.0557 2.5429L58.9783 2.63708L58.8578 2.75695L58.7114 2.81688L58.5307 2.86825L58.393 2.89394L58.0745 2.92819L57.8765 2.971L57.713 3.03093L57.5753 3.09943L57.4548 3.16792L57.3515 3.24498L57.2826 3.3306L57.1965 3.47615L57.1277 3.61315L57.0502 3.84432L57.0158 4.0498L56.9814 4.35804L56.9469 4.50359L56.8953 4.6577L56.8436 4.76045L56.7662 4.84607L56.7231 4.88888L56.6715 4.88031L56.4477 4.75188L56.2067 4.61489L56.0001 4.49503L55.5525 4.23817L55.4148 4.16111L55.4234 4.10974L55.4837 4.02412L55.6903 3.71589L55.8108 3.55321L55.9141 3.41622L56.0087 3.29635L56.1206 3.15936L56.2153 3.04806L56.3186 2.92819L56.4477 2.7912L56.551 2.67989L56.8523 2.38022L56.9211 2.32029L57.0588 2.19186L57.1535 2.1148L57.2826 2.0035L57.4031 1.90932L57.5322 1.80657L57.67 1.70383L57.7905 1.61821L57.9368 1.51547L58.1089 1.40416L58.2725 1.30142L58.4876 1.17299L58.7028 1.05312L58.9352 0.933253L59.1246 0.839072L59.4345 0.70208L59.6841 0.599337L60.0112 0.47947L60.3296 0.376726L60.5706 0.30823L60.9838 0.205487L61.3281 0.136991L61.7154 0.0770576L62.0941 0.0342478L62.5417 0Z" fill="#BE2C2F"/>
<path d="M69.0747 12.6374L69.1263 12.6546L69.3329 12.7744L70.2281 13.2882L70.3744 13.3738L70.3658 13.4166L70.2539 13.5878L70.185 13.6906L70.0904 13.8276L69.9957 13.956L69.8924 14.093L69.8063 14.2043L69.6944 14.3413L69.5997 14.4526L69.4965 14.5724L69.3932 14.6838L69.3157 14.7694L69.2124 14.8721L69.1522 14.9406L69.0317 15.0605L68.9628 15.1204L68.8681 15.2146L68.7993 15.2745L68.7132 15.3516L68.6185 15.4286L68.5324 15.5057L68.4464 15.5742L68.3086 15.6855L67.9816 15.9252L67.6201 16.165L67.4393 16.2763L67.2327 16.3961L67.0261 16.5075L66.7937 16.6273L66.5613 16.7386L66.2859 16.8585L65.9761 16.9784L65.7609 17.0554L65.4166 17.1667L65.1067 17.2523L64.7366 17.338L64.332 17.415L63.9705 17.4664L63.566 17.5092L63.1787 17.5349L63.1701 17.5263V16.5331L63.3078 16.4646L63.523 16.3533L63.6779 16.2506L63.9189 16.0622L64.048 15.9766L64.2115 15.891L64.3148 15.8567H64.5214L64.7022 15.8824L64.9001 15.9338L65.0981 15.9937L65.2875 16.028L65.5113 16.0365L65.7006 16.0194L65.8642 15.9852L66.0019 15.9167L66.1482 15.8054L66.2515 15.7112L66.3117 15.6513L66.4236 15.5057L66.5011 15.3858L66.613 15.1718L66.6991 15.0348L66.7937 14.9149L66.8884 14.8122L66.9573 14.7608L67.0864 14.7094L67.2327 14.6666L67.4307 14.6324L67.6889 14.6067L67.8955 14.5639L68.0676 14.504L68.2054 14.4355L68.3 14.3841L68.4205 14.2985L68.498 14.2128L68.5669 14.1015L68.6443 13.956L68.7046 13.7933L68.7476 13.6306L68.7734 13.4765L68.7993 13.2111L68.8423 13.0227L68.8939 12.8686L68.9456 12.7659L69.0058 12.6974L69.0747 12.6374Z" fill="#BE2C2F"/>
<path d="M63.1787 0L63.3766 0.00856195L63.7812 0.0428098L64.1943 0.0941815L64.5989 0.162677L64.9518 0.239735L65.2875 0.325354L65.6231 0.428098L65.9502 0.539403L66.2945 0.676394L66.57 0.796262L66.8196 0.916129L66.9917 1.00175L67.1811 1.10449L67.3618 1.20724L67.4909 1.28429L67.6803 1.40416L67.8611 1.52403L68.0332 1.6439L68.1967 1.76376L68.3517 1.88363L68.4894 1.99494L68.6013 2.08912L68.696 2.16617L68.8251 2.28604L68.8939 2.34598L68.9628 2.41447L69.0317 2.47441L69.2641 2.70558L69.3243 2.77407L69.4018 2.85113L69.462 2.91963L69.5395 3.00525L69.617 3.09943L69.7202 3.2193L69.7891 3.30491L69.8752 3.41622L70.0129 3.59602L70.1248 3.7587L70.2109 3.87857L70.3486 4.09261L70.3744 4.13542V4.16111L70.2023 4.25529L69.9957 4.37516L69.7547 4.51215L69.5481 4.63202L69.3673 4.73476L69.1608 4.85463L69.1091 4.88888H69.0661V4.87175L69.0317 4.85463L68.9542 4.77757L68.8853 4.64058L68.8251 4.44365L68.7906 4.24673L68.7648 3.99843L68.7304 3.82719L68.6874 3.68164L68.6099 3.5104L68.5238 3.35629L68.4464 3.25354L68.3603 3.18505L68.2312 3.10799L68.0935 3.03949L67.9385 2.97956L67.7664 2.93675L67.5598 2.91106L67.336 2.88538L67.1811 2.85113L67.0261 2.79976L66.9229 2.74839L66.7937 2.61996L66.6819 2.47441L66.5958 2.32885L66.4925 2.13193L66.415 2.01206L66.3289 1.90075L66.2257 1.78945L66.1568 1.72951L66.0449 1.6439L65.933 1.5754L65.8469 1.54115L65.6748 1.5069L65.5887 1.49834H65.3477L65.167 1.52403L64.9948 1.56684L64.7624 1.63533L64.5731 1.66958L64.4698 1.67814H64.332L64.2201 1.6439L64.0222 1.54115L63.9017 1.45553L63.764 1.34423L63.609 1.23292L63.4541 1.13874L63.2647 1.04456L63.1701 1.00175V0.00856195L63.1787 0Z" fill="#BE2C2F"/>
<path d="M56.6801 12.646L56.7318 12.6546L56.835 12.7573L56.9039 12.8943L56.9555 13.057L56.99 13.2368L57.0244 13.5536L57.0674 13.7505L57.1277 13.9217L57.1965 14.0587L57.2568 14.1615L57.3429 14.2813L57.472 14.3755L57.6269 14.4611L57.8335 14.5468L58.0487 14.5981L58.152 14.6153L58.4188 14.6409L58.5909 14.6752L58.7717 14.7351L58.8664 14.7865L58.9094 14.8207L58.9697 14.8892L59.0385 14.9663L59.1418 15.1204L59.2279 15.2745L59.314 15.4372L59.4258 15.5913L59.5205 15.6941L59.6238 15.7968L59.7615 15.8996L59.8734 15.968L60.0284 16.0109L60.1489 16.028L60.2694 16.0365H60.3727L60.5534 16.0194L60.7514 15.9766L61.001 15.8996L61.1818 15.8653L61.2764 15.8567H61.4658L61.5691 15.891L61.7068 15.9595L61.8445 16.0451L61.9736 16.1478L62.0855 16.2335L62.2663 16.3533L62.4556 16.4561L62.6106 16.5246L62.6192 16.5417V17.5349L62.2318 17.5092L61.7412 17.4578L61.4055 17.4065L61.1731 17.3636L60.8547 17.2951L60.4932 17.201L60.1747 17.1068L59.8562 16.9955L59.6755 16.927L59.3828 16.8071L59.0816 16.6701L58.72 16.4903L58.5393 16.3876L58.2897 16.242L58.1003 16.1222L57.8937 15.9852L57.7474 15.8824L57.5839 15.7626L57.3429 15.5742L57.231 15.48L57.1363 15.403L57.033 15.3088L56.9641 15.2488L56.8264 15.1204L56.7404 15.0348L56.7145 15.0177V15.0005L56.6801 14.9834L56.5768 14.8807L56.5166 14.8122L56.4133 14.7094L56.353 14.6409L56.2583 14.5382L56.1809 14.444L56.0776 14.3242L55.9829 14.2043L55.871 14.0673L55.7849 13.9474L55.673 13.7933L55.4837 13.5108L55.4234 13.4166L55.4148 13.3738L55.6214 13.2539L55.8624 13.1169L56.0862 12.9885L56.2928 12.8686L56.5166 12.7402L56.6801 12.646Z" fill="#BE2C2F"/>
<path d="M55.1136 4.63202L55.1652 4.64058L55.3804 4.76045L55.5267 4.84607L55.9743 5.10293L56.1378 5.19711L56.1637 5.21423L56.1551 5.23992L56.069 5.29129L55.9571 5.37691L55.871 5.45397L55.8108 5.52246L55.7333 5.6252L55.6644 5.74507L55.63 5.83069L55.5956 6.01049L55.587 6.11324V6.3016L55.6042 6.45571L55.6472 6.64408L55.7247 6.90094L55.7591 7.08074L55.7677 7.17492V7.34616L55.7161 7.48315L55.63 7.64583L55.5439 7.76569L55.4665 7.85987L55.3718 7.97118L55.2771 8.10817L55.2169 8.21091L55.1308 8.40784L55.0791 8.58764L55.0533 8.73319V8.80169L55.0964 9.01574L55.148 9.16985L55.2169 9.32397L55.3115 9.47808L55.4148 9.61508L55.4923 9.7007L55.5956 9.83769L55.673 9.96612L55.7505 10.1288L55.7677 10.1887V10.3428L55.7505 10.5141L55.6989 10.7281L55.63 10.9507L55.5956 11.122L55.587 11.2162V11.4302L55.6128 11.6271L55.6472 11.7556L55.7161 11.884L55.7935 11.9867L55.871 12.0724L55.9571 12.158L56.0862 12.2522L56.1637 12.3035V12.3207L56.0087 12.4063L55.8022 12.5261L55.5784 12.6546L55.3718 12.7744L55.1738 12.8857L55.148 12.9029L55.1136 12.8943L54.907 12.4833L54.7693 12.1751L54.6229 11.8069L54.5283 11.5415L54.4422 11.2675L54.3561 10.9593L54.27 10.5997L54.2012 10.2401L54.1409 9.82912L54.1065 9.52089L54.0807 9.2041V8.29653L54.1323 7.78282L54.1668 7.5174L54.227 7.14923L54.3045 6.78107L54.3992 6.4129L54.5111 6.04474L54.6316 5.70226L54.7348 5.4454L54.8295 5.22279L54.9414 4.98306L55.105 4.6577L55.1136 4.63202Z" fill="#BE2C2F"/>
<path d="M70.6498 4.62346L70.6843 4.6577L70.8478 4.98306L70.9769 5.2656L71.063 5.47109L71.1577 5.71082L71.2696 6.02762L71.3729 6.36153L71.4762 6.75538L71.5536 7.11498L71.6053 7.41465L71.6569 7.8085L71.6913 8.15098L71.7085 8.33078V9.14417L71.6655 9.64932L71.6139 10.0603L71.5536 10.4199L71.4762 10.7795L71.3729 11.1734L71.2524 11.5586L71.1319 11.8926L70.9941 12.2265L70.8822 12.4748L70.7531 12.7402L70.6843 12.8686L70.6584 12.9114L70.5379 12.8429L70.34 12.7316L70.1334 12.6118L69.9096 12.4833L69.703 12.3635L69.6256 12.3207L69.617 12.3035L69.7547 12.2179L69.8752 12.1152L69.9613 12.0295L69.9699 12.0124H69.9871L70.0043 11.9782L70.1076 11.8241L70.1506 11.7213L70.185 11.5672L70.2023 11.3788V11.259L70.185 11.0877L70.1334 10.8651L70.0645 10.6425L70.0301 10.4627L70.0215 10.3857V10.1716L70.0904 10.0089L70.1764 9.86337L70.2625 9.74351L70.3658 9.62364L70.4777 9.47808L70.5724 9.31541L70.6412 9.16129L70.6929 9.00718L70.7273 8.83594L70.7359 8.75888L70.7101 8.5962L70.6584 8.4164L70.5896 8.25373L70.5121 8.10817L70.4088 7.96262L70.3142 7.85131L70.2109 7.72288L70.1162 7.56877L70.0473 7.43178L70.0215 7.35472V7.14923L70.0473 6.96943L70.099 6.77251L70.1506 6.60983L70.1936 6.38722L70.2023 6.25879V6.14748L70.185 5.97624L70.1506 5.80501L70.0818 5.66801L70.0043 5.55671L69.9182 5.46253V5.4454L69.8838 5.42828L69.8235 5.36835L69.6944 5.27416L69.617 5.23135V5.21423L69.7891 5.12005L70.2023 4.88031L70.4433 4.74332L70.6498 4.62346Z" fill="#BE2C2F"/>
<path d="M59.5205 12.3292H59.6496L59.7701 12.3549L59.8906 12.4148L59.9853 12.4919L60.0542 12.5775L60.1144 12.7059L60.1403 12.8172V12.9286L60.1144 13.0484L60.08 13.1255L60.0198 13.2197L59.9681 13.2796L59.8734 13.3481L59.7615 13.3995L59.6927 13.4166L59.5464 13.4251L59.4431 13.408L59.3312 13.3652L59.2451 13.3053L59.1762 13.2453L59.0988 13.134L59.0557 13.0313L59.0385 12.9457V12.8087L59.0729 12.6717L59.1332 12.5604L59.2279 12.4576L59.2967 12.4063L59.4 12.3549L59.5205 12.3292Z" fill="#BE2C2F"/>
<path d="M65.3133 4.10974H65.4338L65.5973 4.13542L65.7092 4.17823L65.8211 4.23817L65.933 4.32379L66.0019 4.39228L66.0879 4.51215L66.1482 4.63202V4.64914L66.1224 4.6577L65.735 4.66627L65.6576 4.69195L65.5801 4.75188L65.5371 4.82894L65.5199 4.88888L65.5113 5.47109L65.4682 5.47965H65.2444L65.2358 5.47109L65.2272 4.91456L65.21 4.82894L65.1583 4.74332L65.0895 4.69195L65.0034 4.66627L64.6075 4.6577L64.5989 4.62346L64.6677 4.49503L64.7538 4.38372L64.8399 4.2981L64.9518 4.22104L65.0723 4.16111L65.1842 4.12686L65.3133 4.10974Z" fill="#BE2C2F"/>
<path d="M57.8679 7.67151H57.997L58.1606 7.6972L58.2811 7.74001V7.76569L58.0229 8.02255L57.9798 8.09105L57.9626 8.15098V8.25373L57.9884 8.33078L58.0573 8.4164L58.4188 8.776L58.393 8.81881L58.238 8.97293L58.2036 8.9558L57.8249 8.57908L57.756 8.53627L57.7044 8.51915H57.5839L57.515 8.54483L57.4376 8.60476L57.2052 8.83594L57.1793 8.82738L57.1449 8.74176L57.1191 8.63045L57.1105 8.56196V8.40784L57.1363 8.27941L57.1793 8.15098L57.2654 8.00543L57.3687 7.89412L57.4462 7.82563L57.5581 7.75713L57.6786 7.70576L57.7818 7.68007L57.8679 7.67151Z" fill="#BE2C2F"/>
<path d="M66.3978 10.0004H66.5527L66.6991 10.026L66.8368 10.0774L66.9487 10.1459L67.0348 10.2144L67.1036 10.2829L67.1897 10.4028L67.2499 10.5312L67.2844 10.6425L67.3016 10.7795L67.293 10.9679L67.2413 10.9507L67.0175 10.8223L66.7765 10.6853L66.57 10.5655L66.1224 10.3086L65.9502 10.2059V10.1802L66.0879 10.0945L66.1998 10.0432L66.3289 10.0089L66.3978 10.0004Z" fill="#BE2C2F"/>
<path d="M65.6662 10.6768L65.7523 10.7196L65.9502 10.8309L66.1568 10.9507L66.6044 11.2076L66.811 11.3275L67.0003 11.4388L66.9917 11.4645L66.854 11.5501L66.7335 11.6014L66.5958 11.6357L66.4322 11.6443L66.2945 11.6271L66.1568 11.5843L66.0105 11.5073L65.8986 11.4131L65.8125 11.3189L65.7523 11.2247L65.7092 11.1391L65.6662 11.0107L65.649 10.9079V10.7538L65.6576 10.6853L65.6662 10.6768Z" fill="#BE2C2F"/>
<path d="M67.8094 7.67151H67.8869L67.973 7.6972L68.0504 7.74857L68.1021 7.82563L68.1279 7.91125V7.97974L68.1021 8.06536L68.0676 8.11673L68.0074 8.17667L67.9213 8.21091L67.8438 8.21948L67.7492 8.20235L67.6631 8.15098L67.6114 8.08249L67.577 7.9883V7.89412L67.6114 7.79994L67.6803 7.72288L67.7664 7.68007L67.8094 7.67151Z" fill="#BE2C2F"/>
<path d="M61.4744 6.02762H61.5519L61.6379 6.0533L61.7154 6.10467L61.7671 6.18173L61.7929 6.26735V6.33585L61.7671 6.42147L61.7326 6.47284L61.6724 6.53277L61.5863 6.56702L61.5088 6.57558L61.4142 6.55846L61.3281 6.50709L61.2764 6.43859L61.242 6.34441V6.25023L61.2764 6.15605L61.3453 6.07899L61.4314 6.03618L61.4744 6.02762Z" fill="#BE2C2F"/>
<path d="M1.35599 29L2.25645 23.6047H4.08916C4.5129 23.6047 4.84749 23.6802 5.09291 23.8312C5.34009 23.9823 5.50694 24.1869 5.59346 24.445C5.68174 24.7032 5.6994 24.9921 5.64643 25.3118C5.59346 25.6279 5.47958 25.9159 5.30478 26.1759C5.13175 26.4358 4.89692 26.643 4.6003 26.7976C4.30544 26.9522 3.94791 27.0294 3.52769 27.0294H2.21408L2.30942 26.4499H3.60185C3.89141 26.4499 4.1333 26.3998 4.32751 26.2997C4.52173 26.1996 4.67357 26.0635 4.78304 25.8914C4.89251 25.7192 4.9649 25.526 5.00021 25.3118C5.03552 25.094 5.0267 24.9008 4.97373 24.7322C4.92252 24.5618 4.8157 24.4284 4.65327 24.3318C4.4926 24.2334 4.26572 24.1842 3.97263 24.1842H2.81792L2.0128 29H1.35599Z" fill="#95171E"/>
<path d="M10.6232 23.6047L9.72273 29H9.06593L9.96639 23.6047H10.6232Z" fill="#95171E"/>
<path d="M13.8427 29L13.9275 28.5258L17.5717 24.1842H14.6161L14.7114 23.6047H18.451L18.3768 24.0789L14.722 28.4204H17.6777L17.5823 29H13.8427Z" fill="#95171E"/>
<path d="M21.4871 29L21.5719 28.5258L25.2161 24.1842H22.2605L22.3558 23.6047H26.0954L26.0212 24.0789L22.3664 28.4204H25.322L25.2267 29H21.4871Z" fill="#95171E"/>
<path d="M29.5341 29H28.8455L31.7376 23.6047H32.4156L33.5067 29H32.8181L31.96 24.4582H31.9177L29.5341 29ZM30.1379 26.8924H32.9135L32.8181 27.472H30.0426L30.1379 26.8924Z" fill="#95171E"/>
<path d="M37.3347 29L38.2352 23.6047H40.0679C40.4916 23.6047 40.8271 23.6758 41.0743 23.818C41.3232 23.9603 41.4919 24.1561 41.5801 24.4055C41.6702 24.6549 41.6887 24.9394 41.6358 25.2591C41.5828 25.5752 41.4698 25.8562 41.2968 26.1021C41.1255 26.348 40.8924 26.5412 40.5976 26.6817C40.3045 26.8222 39.9478 26.8924 39.5276 26.8924H38.0445L38.1504 26.3023H39.6124C39.9019 26.3023 40.1421 26.2602 40.3327 26.1759C40.5234 26.0916 40.6717 25.9713 40.7777 25.815C40.8836 25.6586 40.9542 25.4734 40.9896 25.2591C41.0249 25.0413 41.0152 24.8525 40.9604 24.6927C40.9075 24.5311 40.7989 24.4064 40.6347 24.3186C40.4722 24.229 40.2445 24.1842 39.9514 24.1842H38.7967L37.9915 29H37.3347ZM40.2904 26.5763L41.2226 29H40.4599L39.5488 26.5763H40.2904Z" fill="#95171E"/>
<path d="M46.6456 23.6047L45.7452 29H45.0884L45.9888 23.6047H46.6456Z" fill="#95171E"/>
<path d="M50.2677 29H49.5792L52.4712 23.6047H53.1492L54.2404 29H53.5518L52.6937 24.4582H52.6513L50.2677 29ZM50.8716 26.8924H53.6471L53.5518 27.472H50.7762L50.8716 26.8924Z" fill="#95171E"/>
</svg>
