<svg id="Layer_1" data-name="Layer 1" xmlns="http://www.w3.org/2000/svg" viewBox="0 0 3000 3000"><defs><style>.cls-1{fill:#f2f2f2;}.cls-2{fill:#c1272d;}.cls-3{fill:#fbb03b;}.cls-4{fill:#f7931e;}</style></defs><circle class="cls-1" cx="1500" cy="1500" r="1500"/><circle class="cls-2" cx="1500" cy="1500" r="1389.32"/><circle class="cls-3" cx="1654.37" cy="1197.09" r="678.64"/><circle class="cls-4" cx="1654.37" cy="1197.09" r="620.39"/><circle class="cls-2" cx="1757.19" cy="1580.45" r="73.47"/><circle class="cls-2" cx="1962.89" cy="941.29" r="73.47"/><circle class="cls-2" cx="1994.73" cy="1325.77" r="73.47"/><circle class="cls-2" cx="1255.48" cy="1288.24" r="73.47"/><circle class="cls-2" cx="1536.78" cy="867.82" r="73.47"/><circle class="cls-2" cx="1683.72" cy="1151.89" r="73.47"/><circle class="cls-2" cx="1309.04" cy="992.72" r="36.73"/><circle class="cls-2" cx="1566.17" cy="1382.09" r="36.73"/><circle class="cls-2" cx="1382.68" cy="1224.81" r="36.73"/><circle class="cls-2" cx="2036.36" cy="1100.47" r="36.73"/><circle class="cls-2" cx="1757.19" cy="760.07" r="36.73"/><circle class="cls-2" cx="1419.24" cy="1580.45" r="36.73"/><polygon points="991.28 2793.2 2019.06 1899.41 2118.41 1812.99 2136.64 1797.15 2468.71 1508.36 2408.39 1438.98 2130.47 1680.7 2098.49 1708.52 2066.91 1735.98 2066.77 1736.1 1986.99 1805.45 1887.64 1891.86 897.99 2752.46 991.28 2793.2"/><polygon points="422.62 2377.22 949.66 1126.69 1000.81 1005.35 1010.07 983.36 1010.18 983.1 1051.19 885.79 1181.1 577.54 1096.37 541.86 936.87 920.33 879.5 1056.47 828.35 1177.81 358.6 2292.29 422.62 2377.22"/></svg>