<svg width="220" height="151" viewBox="0 0 220 151" fill="none" xmlns="http://www.w3.org/2000/svg">
<path d="M181.011 151H178.858L187.902 133.986H190.022L193.434 151H191.281L188.598 136.678H188.465L181.011 151ZM182.9 144.354H191.579L191.281 146.182H182.602L182.9 144.354Z" fill="#95171E"/>
<path d="M169.685 133.986L166.869 151H164.815L167.631 133.986H169.685Z" fill="#95171E"/>
<path d="M140.568 151L143.384 133.986H149.115C150.44 133.986 151.489 134.21 152.262 134.659C153.041 135.107 153.568 135.725 153.844 136.511C154.126 137.298 154.184 138.195 154.018 139.203C153.853 140.2 153.499 141.086 152.958 141.862C152.423 142.637 151.694 143.246 150.772 143.689C149.855 144.132 148.74 144.354 147.426 144.354H142.788L143.119 142.493H147.691C148.596 142.493 149.347 142.36 149.944 142.094C150.54 141.828 151.004 141.449 151.335 140.956C151.666 140.463 151.887 139.879 151.997 139.203C152.108 138.516 152.077 137.921 151.906 137.417C151.741 136.907 151.401 136.514 150.888 136.237C150.38 135.955 149.667 135.814 148.751 135.814H145.14L142.622 151H140.568ZM149.811 143.357L152.726 151H150.341L147.492 143.357H149.811Z" fill="#95171E"/>
<path d="M116.175 151H114.022L123.066 133.986H125.186L128.598 151H126.445L123.761 136.678H123.629L116.175 151ZM118.063 144.354H126.743L126.445 146.182H117.765L118.063 144.354Z" fill="#95171E"/>
<path d="M91.0113 151L91.2763 149.505L102.672 135.814H93.4296L93.7278 133.986H105.422L105.19 135.481L93.7609 149.172H103.003L102.705 151H91.0113Z" fill="#95171E"/>
<path d="M67.1065 151L67.3715 149.505L78.7674 135.814H69.5248L69.8229 133.986H81.5169L81.285 135.481L69.856 149.172H79.0986L78.8005 151H67.1065Z" fill="#95171E"/>
<path d="M57.0386 133.986L54.2227 151H52.1688L54.9847 133.986H57.0386Z" fill="#95171E"/>
<path d="M28.059 151L30.8749 133.986H36.6059C37.931 133.986 38.9773 134.224 39.7448 134.7C40.5177 135.177 41.0395 135.822 41.31 136.636C41.5861 137.45 41.6413 138.361 41.4757 139.369C41.31 140.366 40.9539 141.274 40.4073 142.094C39.8662 142.914 39.1319 143.567 38.2043 144.055C37.2823 144.542 36.1642 144.786 34.8502 144.786H30.7424L31.0405 142.958H35.0821C35.9876 142.958 36.744 142.8 37.3513 142.485C37.9586 142.169 38.4335 141.74 38.7758 141.197C39.1181 140.654 39.3445 140.045 39.4549 139.369C39.5653 138.683 39.5377 138.073 39.3721 137.542C39.212 137.004 38.8779 136.583 38.37 136.279C37.8675 135.969 37.1581 135.814 36.2415 135.814H32.6306L30.1129 151H28.059Z" fill="#95171E"/>
<path d="M189.075 65.6226H200.656V114.845H189.075V95.2873H171.737V114.845H160.157V65.6226H171.737V83.6709H189.075V65.6226Z" fill="#C1272D"/>
<path d="M115.496 65.6226H156.911V77.2391H141.993V114.845H130.413V77.2391H115.496V65.6226Z" fill="#C1272D"/>
<path d="M71.7292 65.6226H112.228V78.0923C112.228 80.5863 111.748 82.9271 110.789 85.1147C109.873 87.2586 108.608 89.14 106.994 90.7589C105.38 92.3778 103.483 93.6685 101.302 94.6311C99.121 95.5499 96.8092 96.0093 94.3666 96.0093H83.3096V97.4531C83.3096 99.0282 83.8766 100.385 85.0107 101.522C86.1447 102.66 87.4969 103.229 89.0671 103.229H112.228V114.845H89.0671C86.6682 114.845 84.4219 114.386 82.3282 113.467C80.2346 112.548 78.4026 111.301 76.8324 109.726C75.2622 108.151 74.0191 106.313 73.1031 104.213C72.1871 102.113 71.7292 99.8596 71.7292 97.4531V65.6226ZM83.3096 85.1147H94.3666C95.239 85.1147 96.0459 84.9616 96.7874 84.6553C97.5725 84.3053 98.2486 83.8459 98.8156 83.2771C99.3827 82.6645 99.8188 81.9864 100.124 81.2426C100.473 80.455 100.648 79.6237 100.648 78.7486V77.2391H83.3096V85.1147Z" fill="#C1272D"/>
<path d="M65.0761 71.3981C65.0761 72.5794 65.0107 73.8483 64.8798 75.2046C64.749 76.5172 64.4873 77.8736 64.0947 79.2737C63.7022 80.63 63.1352 81.9864 62.3937 83.3427C61.6958 84.6553 60.758 85.9023 59.5803 87.0836H67.1043V114.845H26.6055V77.2391H19.0815V65.6226H65.0761V71.3981ZM38.1859 77.2391V85.771C40.7158 85.771 42.853 85.596 44.5977 85.246C46.386 84.896 47.8472 84.3709 48.9813 83.6709C50.1589 82.9708 51.0531 82.0957 51.6637 81.0457C52.318 79.9518 52.776 78.683 53.0377 77.2391H38.1859ZM55.5239 97.3875H38.1859V103.229H55.5239V97.3875Z" fill="#C1272D"/>
<path d="M36.4424 3.94659H48.0229V53.169H42.1999C36.1807 53.169 31.0339 52.2502 26.7593 50.4125C22.5284 48.5749 19.0172 46.0153 16.2257 42.7338C13.4778 39.4086 11.406 35.4489 10.0102 30.8548C8.65807 26.217 7.85115 21.1197 7.58945 15.5631H0V3.94659H19.1045V11.8222C19.1045 15.1037 19.3007 18.3633 19.6933 21.601C20.0859 24.8388 20.8928 27.814 22.1141 30.5267C23.379 33.1956 25.1455 35.4708 27.4136 37.3522C29.6817 39.2336 32.6913 40.4806 36.4424 41.0931V3.94659Z" fill="#C1272D"/>
<path d="M148.314 4.0579H159.895V53.2803H154.072C148.052 53.2803 142.906 52.3615 138.631 50.5238C134.4 48.6862 130.889 46.1266 128.097 42.8452C125.35 39.5199 123.278 35.5602 121.882 30.9661C120.53 26.3283 119.723 21.2311 119.461 15.6744H111.872V4.0579H130.976V11.9335C130.976 15.215 131.172 18.4746 131.565 21.7123C131.958 24.9501 132.764 27.9253 133.986 30.638C135.251 33.3069 137.017 35.5821 139.285 37.4635C141.553 39.3449 144.563 40.5919 148.314 41.2044V4.0579Z" fill="#C1272D"/>
<path d="M84.5311 1.48499H86.0384L87.8418 1.53899L89.1338 1.61999L90.4796 1.75499L92.0138 1.97099L93.1712 2.18699L94.3017 2.45699L95.1899 2.69999L96.4281 3.10499L97.3432 3.45599L98.1507 3.80698L99.0389 4.23898L99.6042 4.53598L100.25 4.91398L100.815 5.26498L101.327 5.61598L101.811 5.96698L102.161 6.23697L102.592 6.58797L102.942 6.88497L103.588 7.47897L104.261 8.15397L104.449 8.36997L104.718 8.66696L104.96 8.96396L105.337 9.42296L105.714 9.93596L105.956 10.287L106.226 10.692L106.549 11.205L106.872 11.772L107.221 12.4199L107.518 13.0139L107.948 14.0129L108.244 14.7959L108.567 15.7679L108.809 16.6049L109.052 17.5769L109.24 18.5219L109.402 19.5209L109.563 20.8709L109.698 22.4639L109.752 23.2469V26.5949L109.698 27.8369L109.617 29.8349L109.509 31.7519L109.375 33.2909L109.186 34.7489L108.971 35.9909L108.729 37.1248L108.513 37.9618L108.271 38.7718L107.975 39.6628L107.544 40.7428L107.114 41.6878L106.71 42.4708L106.387 43.0378L105.983 43.6858L105.714 44.0908L105.445 44.4688L105.068 44.9818L104.826 45.2788L104.476 45.7108L104.207 46.0078L104.018 46.2238L103.642 46.6288L102.888 47.3848L102.673 47.5738L102.35 47.8708L102.054 48.1138L101.704 48.4108L101.246 48.7618L100.842 49.0588L100.385 49.3828L99.9272 49.6798L99.3619 50.0308L98.7429 50.3818L98.043 50.7598L97.2086 51.1648L96.455 51.4888L95.486 51.8668L94.3824 52.2448L93.252 52.5688L92.283 52.8118L91.2602 53.0278L90.2374 53.2168L88.757 53.4328L87.5188 53.5678L86.2269 53.6758L84.7465 53.7568L83.9659 53.7838H81.0859L79.9823 53.7298L78.6903 53.6218L77.5868 53.4868L76.5101 53.3248L75.2182 53.0818L74.1953 52.8388L73.1725 52.5688L71.9613 52.1908L71.0462 51.8668L70.1579 51.5158L69.3504 51.1648L68.7045 50.8678L68.2738 50.6518L67.4125 50.1928L66.7665 49.8148L66.1474 49.4368L65.3399 48.8968L64.8824 48.5728L64.4517 48.2488L64.1018 47.9788L63.6711 47.6278L63.2943 47.3038L63.079 47.1148L62.8098 46.8718L62.5945 46.6828L62.1638 46.2778L61.464 45.5758L61.2756 45.3598L60.9257 44.9818L60.7373 44.7658L60.4412 44.4148L60.1451 44.0368L59.9029 43.7398L59.4991 43.1998L59.1761 42.7408L58.6917 42.0118L58.3687 41.4988L57.9649 40.7968L57.6419 40.2028L57.3189 39.5818L56.8883 38.6638L56.4845 37.6918L56.0808 36.5849L55.7847 35.6669L55.4886 34.5869L55.2464 33.5609L55.058 32.6159L54.8965 31.5629L54.7888 30.7259L54.6542 29.2949L54.6273 28.9979V25.8389L54.8157 23.8679L55.058 21.9779L55.2733 20.6819L55.4886 19.6829L55.7578 18.6029L56.027 17.6849L56.3769 16.6589L56.7268 15.7679L57.0498 15.0119L57.4266 14.2289L57.6958 13.6889L58.2341 12.7439L58.7993 11.853L59.1223 11.394L59.3915 11.016L59.6606 10.665L59.9567 10.287L60.5489 9.58496L60.7911 9.31496L61.1141 8.96396L61.8947 8.18097L62.11 7.99197L62.3253 7.77597L62.6214 7.53297L62.9982 7.20897L63.3751 6.91197L63.9403 6.47997L64.3979 6.15597L65.1246 5.66998L65.8244 5.23798L66.4973 4.85998L67.0357 4.56298L67.6547 4.26598L68.3545 3.94198L69.2697 3.56399L70.3733 3.15899L71.2884 2.86199L72.4727 2.53799L73.4955 2.29499L74.9221 2.02499L76.241 1.83599L77.2369 1.72799L78.2866 1.64699L79.6324 1.59299L81.7857 1.56599L84.5311 1.48499ZM82.8893 12.15L80.8705 12.2039L79.9823 12.2579L78.9864 12.3659L78.1251 12.5009L76.9946 12.7439L76.0526 13.0139L75.272 13.2839L74.4914 13.6079L73.7109 13.9859L73.1187 14.3099L72.6073 14.6339L72.2843 14.8499L71.7998 15.2009L71.4499 15.4979L71.1807 15.7139L70.8577 16.0109L70.7501 16.0919V16.1459L70.6424 16.1999L70.3733 16.4699L70.1848 16.6859L69.8888 17.0099L69.6465 17.3069L69.3774 17.6579L69.0544 18.1169L68.7852 18.5219L68.3815 19.2239L68.1661 19.6289L67.7893 20.4659L67.4932 21.2489L67.251 22.0049L66.9818 23.0849L66.8472 23.8139L66.7127 24.7589L66.6319 25.4609L66.5512 26.5679V27.9719L66.605 28.7819L66.7127 29.7269L66.8472 30.5369L67.0895 31.5899L67.3856 32.5619L67.6547 33.2909L68.0046 34.1009L68.4084 34.9109L68.7583 35.5049L69.162 36.1259L69.4312 36.5038L69.6734 36.8279L70.0503 37.2868L70.5348 37.8268L71.3153 38.6098L71.5306 38.7988L71.8806 39.0958L72.2305 39.3658L72.5535 39.6088L73.0918 39.9868L73.8454 40.4458L74.7067 40.9048L75.4066 41.2288L76.2141 41.5528L77.183 41.8768L78.1789 42.1468L79.0941 42.3358L79.9554 42.4708L80.9782 42.5788L81.8395 42.6328H83.8851L85.231 42.5518L86.3076 42.4438L87.3573 42.2818L88.2994 42.0928L89.3222 41.8228L90.2912 41.4988L91.0179 41.2018L91.7716 40.8508L92.3637 40.5268L92.8751 40.2028L93.1981 39.9868L93.6826 39.6358L94.0325 39.3388L94.3286 39.0958L94.517 38.9338V38.8798L94.6247 38.8258L95.2707 38.1778L95.4591 37.9618L95.809 37.5298L96.132 37.0978L96.4011 36.6928L96.6703 36.2608L96.9395 35.7749L97.2355 35.1809L97.5047 34.5329L97.8277 33.5609L98.0161 32.8859L98.2045 31.9679L98.3391 31.1309L98.4468 30.1049L98.5275 28.8629L98.5814 27.5129L98.6083 26.6489V25.2989L98.5544 24.1649L98.4468 23.0849L98.2853 22.0589L98.0969 21.2219L97.8546 20.3849L97.5585 19.5479L97.2625 18.8729L96.8856 18.1439L96.5088 17.5229L96.1589 17.0369L95.8897 16.6859L95.5937 16.3349L95.3514 16.0649L94.7054 15.4169L94.4094 15.1739L94.0594 14.8769L93.575 14.5259L93.1174 14.2289L92.4714 13.8509L91.6639 13.4459L90.7757 13.0949L89.9413 12.8249L88.9992 12.5819L88.1648 12.4199L87.2227 12.2849L85.9846 12.1769L85.3655 12.15H82.8893Z" fill="#C12B2E"/>
<path d="M71.7998 19.8719L72.1228 19.9259L73.8454 20.3579L75.1643 20.7359L76.3217 21.0869L78.0174 21.6539L79.3902 22.1669L80.3322 22.5449L81.355 22.9769L82.1356 23.3279L83.0508 23.7599L84.2889 24.3809L85.4732 25.0289L86.0654 25.3799L86.6037 25.7039L87.1151 26.0279L87.5727 26.3249L88.2186 26.7569L88.7031 27.1079L89.1069 27.4049L89.4299 27.6479L89.7798 27.9179L90.2104 28.2689L90.5603 28.5659L90.8564 28.8089L91.1794 29.1059L91.3948 29.2949L91.7985 29.6729L92.6867 30.5639L92.8751 30.7799L93.1981 31.1309L93.4404 31.4279L93.7365 31.7789L94.0864 32.2379L94.4632 32.7509L94.5978 32.9669L94.5709 33.1289L94.3286 33.7229L94.0056 34.3979L93.6826 34.9379L93.3596 35.3969L92.9828 35.8559L92.6867 36.1799L92.2561 36.6119L91.96 36.8548L91.5562 37.1788L91.0718 37.5028L90.5334 37.8268L90.0759 38.0698L89.2415 38.4208L88.5416 38.6638L87.7611 38.8798L87.0612 39.0418L86.9805 39.0148L86.7113 38.0428L86.3884 37.0708L86.1461 36.4229L85.85 35.7479L85.527 35.0729L85.1233 34.3169L84.8003 33.7769L84.4773 33.2639L84.0466 32.6429L83.616 32.0759L83.3199 31.6979L82.97 31.2929L82.647 30.9149L82.2433 30.4829L81.355 29.5919L81.1397 29.4029L80.8705 29.1599L80.5745 28.9169L80.1707 28.5659L79.4709 28.0259L78.9864 27.6749L78.5288 27.3509L77.829 26.8919L77.1292 26.4599L76.5101 26.1089L75.918 25.7849L75.5142 25.5689L74.3838 25.0289L73.3071 24.5699L72.2305 24.1649L71.2884 23.8409L70.2925 23.5439L70.2387 23.5169L70.2925 23.2469L70.454 22.6529L70.7501 21.8159L70.9923 21.2759L71.2076 20.8439L71.5037 20.3039L71.7729 19.8989L71.7998 19.8719Z" fill="#C12B2E"/>
<path d="M83.9928 15.3629H84.6388L85.85 15.4169L86.8998 15.5249L87.7611 15.6599L88.73 15.8759L89.5106 16.1189L90.022 16.3079L90.5873 16.5509L91.0987 16.8209L91.5832 17.1179L91.96 17.3879L92.3368 17.6849L92.6867 18.0089L93.0905 18.4139L93.3327 18.7109L93.6019 19.0619L93.8979 19.5209L94.1671 20.0069L94.3824 20.4389L94.6785 21.1679L94.9208 21.9509L95.1092 22.7339L95.2707 23.7329L95.3514 24.5159L95.4053 25.4609V26.7839L95.3514 27.8909L95.2976 28.5929L95.1092 28.4309L94.7862 28.1069L94.5978 27.8909L93.9787 27.2699L93.7634 27.0809L93.548 26.8649L93.3327 26.6759L93.0097 26.3789L92.7136 26.1359L92.4445 25.8929L92.0676 25.5959L91.6101 25.2179L91.1794 24.8939L90.2104 24.1919L89.053 23.4089L88.4071 23.0039L87.6534 22.5449L86.8998 22.1129L86.2538 21.7619L85.5001 21.3569L84.2081 20.7089L83.3199 20.3039L82.1625 19.7909L80.6821 19.1969L79.5247 18.7649L78.9326 18.5489L77.9636 18.2249L76.9677 17.9009L75.9718 17.6039L74.8144 17.2799L74.626 17.2259V17.1719L75.0836 16.9019L75.7296 16.5779L76.4832 16.2809L77.0485 16.0919L78.0174 15.8489L78.9326 15.6869L79.7939 15.5789L80.8167 15.4979L82.97 15.3899L83.9928 15.3629Z" fill="#C12B2E"/>
<path d="M69.8349 26.7839L70.8039 27.0809L71.6383 27.3779L72.688 27.8099L73.2264 28.0529L74.0069 28.4309L74.8413 28.8629L75.4873 29.2409L76.0526 29.5919L76.86 30.1319L77.3445 30.4829L77.6944 30.7529L78.0713 31.0499L78.4212 31.3469L78.798 31.6709L79.1479 31.9949L79.5786 32.3999L79.8208 32.6429L80.0092 32.8589L80.1976 33.0479L80.3861 33.2639L80.709 33.6419L81.059 34.0739L81.4358 34.5869L81.8126 35.1269L82.1625 35.6939L82.4317 36.1529L82.8085 36.8818L83.0508 37.3948L83.3468 38.1238L83.6698 39.0958L83.7237 39.3388L83.6967 39.3658L83.1584 39.3928H82.7547L81.8395 39.3658L80.8436 39.2848L79.8477 39.1498L78.7173 38.9068L77.9367 38.6908L77.0215 38.3668L76.2141 38.0158L75.4873 37.6378L74.8682 37.2598L74.4107 36.9358L74.0608 36.6658L73.7647 36.4229L73.4955 36.1799L73.1725 35.8829L72.7957 35.5049L72.6073 35.2889L72.3112 34.9379L71.9613 34.4789L71.6383 33.9929L71.3961 33.5879L71.0731 32.9939L70.7501 32.2919L70.454 31.5089L70.1848 30.5639L69.9964 29.6729L69.8618 28.7009L69.808 27.9449V26.8109L69.8349 26.7839Z" fill="#C12B2E"/>
<path d="M191.496 5.07598H191.577V26.1359L191.442 26.0819L190.688 25.6499L187.889 24.0299L187.243 23.6519L186.489 23.2199L185.843 22.8419L185.144 22.4369L184.39 22.0049L183.69 21.5999L183.044 21.2219L182.344 20.8169L181.591 20.3849L181.133 20.1149L175.535 16.8749L175.077 16.6049L174.7 16.3889L174.646 16.3079L174.889 16.0379L175.104 15.6599L175.346 15.0929L175.508 14.5799L175.642 13.9049L175.75 12.8789L175.858 12.3929L176.046 11.88L176.234 11.529L176.45 11.34L176.961 11.097L177.419 10.962L177.903 10.881L178.738 10.8L179.384 10.665L180.191 10.395L180.729 10.125L180.999 9.90896L181.16 9.77396L181.295 9.63896L181.591 9.31496L181.941 8.85596L182.237 8.36997L182.533 7.82997L182.856 7.31697L183.179 6.88497L183.448 6.61497L183.69 6.47997L184.121 6.42597H184.525L184.982 6.47997L185.52 6.61497L186.113 6.80397L186.786 6.93897L187.378 6.99297H187.943L188.427 6.93897L189.073 6.69597L189.612 6.42597L190.123 6.10197L190.5 5.80498L190.984 5.42698L191.469 5.10298L191.496 5.07598ZM187.943 8.63996L187.674 8.74796L187.431 8.96396L187.324 9.17996L187.27 9.36896V9.63896L187.378 9.93596L187.512 10.125L187.754 10.287L188.024 10.368L188.374 10.341L188.643 10.206L188.831 10.017L188.966 9.74696L188.993 9.61196V9.36896L188.885 9.07196L188.723 8.85596L188.535 8.72096L188.293 8.63996H187.943ZM183.636 12.9599L183.367 13.0679L183.125 13.2839L183.017 13.4999L182.963 13.6889V13.9319L183.044 14.2019L183.259 14.6069L183.636 15.2549L183.986 15.8489L184.228 16.0649L184.525 16.1729H184.848L185.117 16.0649L185.332 15.9029L185.494 15.6329L185.547 15.4169V15.2009L185.44 14.8769L185.063 14.2289L184.686 13.5539L184.444 13.2029L184.175 13.0139L183.986 12.9599H183.636ZM178.468 14.6879L178.199 14.7959L177.957 15.0119L177.822 15.2819L177.796 15.4169V15.6869L177.903 15.9839L178.038 16.1729L178.28 16.3349L178.549 16.4159H178.738L179.007 16.3349L179.222 16.1999L179.41 15.9839L179.491 15.7949L179.518 15.6599V15.4169L179.41 15.1199L179.222 14.8769L178.98 14.7419L178.818 14.6879H178.468ZM187.835 17.2799L187.431 17.3609L187.055 17.4959L186.759 17.6579L186.409 17.9279L186.14 18.1979L185.951 18.4679L185.709 18.9269L185.601 19.3049L185.547 19.6289V20.1149L185.655 20.6549L185.843 21.0869L186.005 21.3569L186.22 21.6269L186.436 21.8429L186.786 22.0859L187.216 22.3019L187.728 22.4369L187.997 22.4639H188.266L188.697 22.4099L189.181 22.2479L189.612 22.0049L189.989 21.6809L190.015 21.5999L190.096 21.5729L190.338 21.2219L190.554 20.7899L190.661 20.4119L190.715 20.0609V19.7369L190.635 19.2239L190.5 18.8189L190.312 18.4679L190.042 18.1169L189.8 17.8739L189.45 17.6309L188.993 17.4149L188.589 17.3069L188.4 17.2799H187.835Z" fill="#BE2C2F"/>
<path d="M193.299 29.1599L193.434 29.2139L194.161 29.6189L194.807 29.9969L199.005 32.4269L199.544 32.7509L199.517 32.9669L199.409 33.4259L199.355 33.8579V34.5599L199.463 35.2079L199.678 35.8559L199.894 36.2878L200.136 36.6658L200.432 37.0438L200.782 37.3948L201.132 37.6648L201.482 37.8808L201.912 38.0968L202.343 38.2588L202.908 38.3938L203.42 38.4478H203.796L204.442 38.3668L204.954 38.2318L205.465 38.0158L205.869 37.7998L206.246 37.5298L206.515 37.2868L206.703 37.1248L206.811 36.9898L206.973 37.0438L207.619 37.4218L208.372 37.8538L209.772 38.6638L210.176 38.9068V39.0148L209.96 39.2848L209.664 39.8518L209.449 40.4188L209.314 40.9318L209.234 41.3368L209.126 42.3358L209.018 42.8758L208.83 43.3888L208.614 43.7938L208.399 43.9558L207.915 44.1718L207.484 44.3068L206.838 44.4148L206.057 44.4958L205.331 44.6578L204.846 44.8198L204.308 45.0628L204.012 45.2518L203.662 45.5758L203.366 45.8728L203.07 46.2508L202.828 46.6018L202.505 47.1688L202.155 47.7628L201.859 48.1948L201.562 48.5458L201.266 48.7618L200.943 48.8428H200.136L199.651 48.7618L198.79 48.4918L198.333 48.3838L197.713 48.3028H196.744L196.421 48.3568L195.883 48.5458L195.372 48.7888L194.887 49.0858L194.43 49.4368L193.945 49.8148L193.353 50.2198H193.299V29.1599ZM195.695 33.6959L195.426 33.8039L195.183 34.0199L195.076 34.2359L195.022 34.4249V34.6949L195.13 34.9919L195.264 35.1809L195.506 35.3429L195.775 35.4239L196.125 35.3969L196.395 35.2619L196.583 35.0729L196.718 34.8029L196.744 34.6679V34.4249L196.637 34.1279L196.475 33.9119L196.233 33.7499L196.045 33.6959H195.695ZM196.61 41.1478L196.314 41.2558L196.072 41.4448L195.91 41.7688L195.883 41.8768V42.1468L195.991 42.4708L196.368 43.1188L196.798 43.8748L196.987 44.1178L197.148 44.2528L197.417 44.3608H197.794L198.063 44.2528L198.306 44.0368L198.44 43.7398L198.467 43.6048V43.4158L198.386 43.1458L198.171 42.7408L197.794 42.0928L197.444 41.4988L197.229 41.2828L196.987 41.1748L196.852 41.1478H196.61ZM201.724 41.4718L201.455 41.5798L201.213 41.7958L201.105 42.0118L201.051 42.2008V42.4708L201.159 42.7678L201.293 42.9568L201.536 43.1188L201.805 43.1998H202.02L202.289 43.1188L202.505 42.9568L202.666 42.7678L202.747 42.5788L202.774 42.4438V42.2008L202.666 41.9038L202.478 41.6608L202.235 41.5258L202.074 41.4718H201.724Z" fill="#BE2C2F"/>
<path d="M211.71 17.4689L211.871 17.5229L212.329 17.7929L212.894 18.1709L213.19 18.4139L213.432 18.6839L213.54 18.8999L213.594 19.3589V19.6559L213.54 20.1149L213.406 20.6819L213.19 21.3839L213.083 21.9239L213.029 22.4369V23.2739L213.109 23.7059L213.271 24.1649L213.567 24.7859L213.836 25.2179L214.186 25.6769L214.509 26.0549L214.778 26.4329L215.047 26.9459L215.209 27.3779L215.263 27.6749L215.128 28.1609L214.859 28.7279L214.59 29.1329L214.294 29.4839L213.944 29.9159L213.648 30.3749L213.325 30.9959L213.109 31.5629L213.029 32.0219V32.9399L213.136 33.6689L213.298 34.2899L213.486 34.9109L213.567 35.3699V36.2069L213.513 36.4498L213.352 36.6928L213.163 36.9088L212.813 37.1788L212.302 37.5028L211.844 37.7728L211.818 37.7998L211.629 37.7728L210.875 37.3408L209.476 36.5308L208.83 36.1529L208.13 35.7479L207.726 35.5049L207.699 35.4239L207.807 35.0729L207.888 34.5869L207.915 34.2899V33.8579L207.834 33.2099L207.699 32.6969L207.484 32.1839L207.269 31.7789L207 31.4009L206.703 31.0769L206.434 30.8069L206.031 30.5099L205.573 30.2399L204.981 29.9969L204.442 29.8619L204.066 29.8079H203.285L202.639 29.9159L201.993 30.1319L201.562 30.3479L201.186 30.5909L200.943 30.7799L200.674 31.0229L200.432 31.2659L200.001 31.0499L199.275 30.6179L198.656 30.2669L198.01 29.8889L195.21 28.2689L194.564 27.8909L194.187 27.6749L194.214 27.5939L194.833 27.2429L195.479 26.8649L196.879 26.0549L197.525 25.6769L198.279 25.2449L198.979 24.8399L199.624 24.4619L200.324 24.0569L200.89 23.7329L202.047 23.0579L202.747 22.6529L203.5 22.2209L204.146 21.8429L204.846 21.4379L205.6 21.0059L206.246 20.6279L206.811 20.3039L207.457 19.9259L208.211 19.4939L208.668 19.2239L209.234 18.8999L209.933 18.4949L210.579 18.1169L211.279 17.7119L211.71 17.4689ZM207.646 22.4639L207.242 22.5449L206.811 22.7069L206.488 22.8959L206.219 23.1119L205.95 23.3819L205.761 23.6519L205.546 24.0569L205.438 24.3539L205.358 24.8669V25.3259L205.438 25.7309L205.573 26.1359L205.788 26.5139L206.084 26.8649L206.38 27.1349L206.784 27.3779L207.188 27.5399L207.538 27.6209L207.753 27.6479H208.076L208.48 27.5939L208.911 27.4589L209.287 27.2699L209.583 27.0539L209.718 26.9459V26.8919L209.826 26.8379L210.095 26.4869L210.31 26.1089L210.445 25.7039L210.526 25.2179V24.8939L210.472 24.4889L210.31 24.0029L210.095 23.5979L209.799 23.2469L209.61 23.0579L209.26 22.8149L208.884 22.6259L208.534 22.5179L208.211 22.4639H207.646ZM199.275 26.1359L199.032 26.1899L198.817 26.2979L198.602 26.5139L198.494 26.7569L198.467 26.8649V27.1349L198.548 27.4049L198.925 28.0799L199.302 28.7279L199.49 29.0249L199.624 29.1599L199.759 29.2679L199.947 29.3489L200.244 29.3759L200.486 29.3219L200.728 29.1869L200.943 28.9439L201.051 28.5929V28.4039L200.97 28.1339L200.593 27.4589L200.217 26.8109L199.974 26.4329L199.786 26.2709L199.544 26.1629L199.275 26.1359ZM210.337 31.1039L210.068 31.2119L209.826 31.4279L209.718 31.6439L209.664 31.8329V32.1029L209.772 32.3999L209.906 32.5889L210.149 32.7509L210.418 32.8319H210.606L210.875 32.7509L211.091 32.6159L211.279 32.3999L211.387 32.0759V31.8329L211.279 31.5359L211.118 31.3199L210.875 31.1579L210.687 31.1039H210.337Z" fill="#BE2C2F"/>
<path d="M191.496 29.1599H191.577V50.2198L191.442 50.1658L191.011 49.8688L190.688 49.6258L190.312 49.3288L189.854 49.0048L189.369 48.7348L188.912 48.5188L188.347 48.3298L187.997 48.2758H187.431L186.597 48.3838L185.924 48.5458L185.171 48.7618L184.713 48.8428L184.228 48.8698L183.744 48.8158L183.502 48.7078L183.206 48.4378L182.856 47.9788L182.506 47.4118L182.102 46.6828L181.806 46.2508L181.564 45.9538L181.268 45.6298L181.025 45.3868L180.702 45.1438L180.272 44.9278L179.707 44.7118L179.087 44.5498L178.63 44.4688L177.769 44.3878L177.257 44.2798L176.746 44.0908L176.342 43.8748L176.207 43.7128L175.938 43.1458L175.804 42.6868L175.723 42.2278L175.642 41.3908L175.508 40.7158L175.265 39.9868L174.996 39.4198L174.781 39.1228L174.673 38.9878L174.7 38.8798L175.023 38.7178L175.615 38.3668L181.214 35.1269L181.86 34.7489L183.959 33.5339L184.713 33.1019L185.359 32.7239L185.924 32.3999L186.57 32.0219L187.324 31.5899L188.024 31.1849L188.67 30.8069L189.423 30.3749L190.069 29.9969L190.823 29.5649L191.469 29.1869L191.496 29.1599ZM187.512 34.5599L187.27 34.6679L187.055 34.8299L186.92 35.0189L186.839 35.2889V35.5319L186.92 35.8019L187.243 36.3959L187.512 36.8548L187.862 37.4488L188.104 37.6648L188.4 37.7728H188.723L188.966 37.6918L189.208 37.5028L189.369 37.2328L189.423 37.0168V36.8008L189.316 36.5038L189.1 36.0989L188.723 35.4509L188.508 35.0729L188.293 34.7759L188.051 34.6139L187.862 34.5599H187.512ZM181.725 37.1518L181.268 37.2328L180.783 37.3948L180.353 37.6108L180.003 37.8538L179.733 38.0968L179.599 38.2318L179.33 38.5288L179.034 39.0148L178.845 39.4468L178.738 39.7978L178.657 40.3378V40.9318L178.764 41.5258L178.953 42.0388L179.168 42.4438L179.437 42.8218L179.653 43.0648L179.868 43.2538L180.272 43.5508L180.702 43.7668L181.106 43.9288L181.618 44.0368L181.887 44.0638H182.264L182.748 44.0098L183.313 43.8478L183.825 43.6048L184.148 43.3888L184.444 43.1458L184.74 42.8488L185.009 42.4708L185.224 42.0928L185.413 41.5798L185.494 41.2558L185.547 40.8238V40.3648L185.467 39.8248L185.332 39.3658L185.117 38.9068L184.848 38.5018L184.551 38.1508L184.282 37.9078L183.932 37.6648L183.421 37.3948L182.937 37.2328L182.452 37.1518H181.725ZM188.535 41.7418L188.32 41.8228L188.077 42.0118L186.866 43.2268L186.732 43.4428L186.678 43.6048V43.9828L186.786 44.2528L186.974 44.4688L187.189 44.6038L187.405 44.6578H187.674L187.97 44.5498L188.239 44.3068L189.02 43.5238L189.127 43.4428V43.3888L189.235 43.3348L189.477 43.0378L189.585 42.7408V42.4438L189.477 42.1468L189.235 41.8768L189.02 41.7688L188.939 41.7418H188.535Z" fill="#BE2C2F"/>
<path d="M173.085 17.4689L173.247 17.5229L173.785 17.8199L174.431 18.1979L175.185 18.6299L175.642 18.8999L176.207 19.2239L176.853 19.6019L177.607 20.0339L178.253 20.4119L179.007 20.8439L179.653 21.2219L180.406 21.6539L181.052 22.0319L181.618 22.3559L182.264 22.7339L183.017 23.1659L183.663 23.5439L188.562 26.3789L189.073 26.6759L189.719 27.0539L190.419 27.4589L190.661 27.6209L190.635 27.7019L190.015 28.0529L189.369 28.4309L188.67 28.8359L188.024 29.2139L187.324 29.6189L186.57 30.0509L185.278 30.8069L184.525 31.2389L183.125 32.0489L182.479 32.4269L181.725 32.8589L181.079 33.2369L180.326 33.6689L179.68 34.0469L178.926 34.4789L178.28 34.8569L177.526 35.2889L176.88 35.6669L176.127 36.0989L175.669 36.3689L174.915 36.8008L174.27 37.1788L173.57 37.5838L173.139 37.8268L172.924 37.7188L172.385 37.3948L171.928 37.0708L171.551 36.7468L171.389 36.5038L171.309 36.2878L171.282 36.0449V35.5319L171.363 34.9919L171.524 34.4249L171.659 33.9659L171.766 33.4799L171.847 32.7509V32.1299L171.793 31.6709L171.578 31.0769L171.363 30.6179L171.093 30.1589L170.824 29.7809L170.528 29.4299L170.259 29.1059L170.017 28.7279L169.801 28.2959L169.613 27.7289L169.64 27.4859L169.775 27.0539L169.99 26.6219L170.178 26.2979L170.474 25.9199L170.824 25.5149L171.12 25.0829L171.309 24.7859L171.578 24.2189L171.766 23.7059L171.82 23.4359L171.847 23.1659V22.4909L171.766 21.8159L171.632 21.2219L171.389 20.4119L171.309 19.9799L171.282 19.7639V19.2779L171.336 18.8729L171.497 18.6029L171.766 18.3329L172.089 18.0899L172.547 17.7929L173.004 17.5229L173.085 17.4689ZM176.557 22.4639L176.019 22.5449L175.454 22.7069L175.023 22.8959L174.592 23.1389L174.162 23.4629L173.785 23.8139L173.597 24.0299L173.274 24.4889L173.031 24.9209L172.816 25.4879L172.708 25.8659L172.628 26.4869V27.1349L172.735 27.8099L172.951 28.4579L173.166 28.8899L173.381 29.2409L173.65 29.5919L173.866 29.8349L174.108 29.9969L174.296 30.0779H174.673L174.942 29.9699L175.238 29.7269L175.427 29.5109L175.508 29.4569V29.4029H175.561V29.3489L175.642 29.3219L175.804 29.1329L175.938 29.0249L175.965 28.9709H176.073L176.261 29.1869L177.176 30.1049L177.473 30.3209L177.634 30.3749L177.903 30.4019L178.145 30.3479L178.415 30.1859L180.353 28.2419L180.487 27.9989L180.541 27.7829V27.5939L180.46 27.3239L180.245 27.0269L179.114 25.8929V25.8119L179.33 25.6229L179.922 25.0289L180.11 24.7859L180.191 24.5969L180.218 24.5159V24.1379L180.11 23.8949L179.922 23.6519L179.545 23.3279L179.087 23.0309L178.657 22.8149L178.172 22.6259L177.715 22.5179L177.284 22.4639H176.557ZM185.144 26.7839L184.821 26.9189L184.255 27.2429L183.609 27.6209L183.34 27.7829L183.125 27.9719L183.017 28.1879L182.963 28.3769V28.6469L183.071 28.9439L183.259 29.1599L183.394 29.2679L183.582 29.3489L183.879 29.3759L184.121 29.3219L184.444 29.1599L185.601 28.4849L185.897 28.2959L186.086 28.0529L186.166 27.8099V27.4589L186.059 27.1889L185.817 26.9189L185.574 26.8109L185.467 26.7839H185.144Z" fill="#BE2C2F"/>
<path d="M193.299 5.07598L193.407 5.10298L193.918 5.45398L194.403 5.83198L194.672 6.04798L195.076 6.31797L195.614 6.61497L196.287 6.88497L196.61 6.96597L196.906 6.99297H197.498L198.063 6.93897L198.736 6.80397L199.436 6.58797L199.894 6.47997L200.405 6.42597H200.755L201.159 6.47997L201.374 6.58797L201.697 6.88497L201.939 7.20897L202.235 7.66797L202.828 8.69396L203.151 9.15296L203.5 9.55796L203.823 9.88196L204.146 10.125L204.577 10.341L204.954 10.503L205.573 10.692L206.138 10.8L206.973 10.881L207.43 10.962L207.888 11.097L208.291 11.286L208.561 11.448L208.722 11.691L208.911 12.096L209.072 12.6359L209.153 13.1489L209.234 13.9319L209.368 14.6069L209.583 15.2549L209.906 15.9299L210.122 16.1999L210.203 16.3079L210.176 16.3889L209.503 16.7669L208.857 17.1449L208.157 17.5499L207.511 17.9279L206.811 18.3329L206.057 18.7649L205.411 19.1429L204.658 19.5749L203.931 20.0069L203.447 20.2769L202.801 20.6549L202.101 21.0599L201.347 21.4919L200.701 21.8699L198.602 23.0849L197.956 23.4629L197.256 23.8679L196.502 24.2999L195.103 25.1099L194.457 25.4879L193.326 26.1359L193.299 26.1089V5.07598ZM194.833 10.368L194.564 10.476L194.322 10.692L194.187 10.962L194.161 11.07V11.367L194.268 11.664L194.403 11.853L194.645 12.015L194.887 12.096H195.103L195.372 12.015L195.587 11.88L195.775 11.664L195.883 11.34V11.097L195.775 10.8L195.614 10.584L195.426 10.449L195.183 10.368H194.833ZM199.813 11.232L199.275 11.313L198.871 11.421L198.44 11.583L197.929 11.853L197.552 12.123L197.175 12.4469L196.825 12.8249L196.529 13.2569L196.287 13.6889L196.072 14.2289L195.937 14.7959L195.883 15.2009V15.6869L195.991 15.9839L196.125 16.1729L196.368 16.3349L196.502 16.3889L196.664 16.4159L198.01 16.4429L198.036 18.2789L198.144 18.5759L198.279 18.7649L198.521 18.9269L198.844 19.0079H201.509L201.778 18.9539L201.993 18.8459L202.208 18.6299L202.316 18.3329L202.343 18.1709L202.37 16.4429L203.689 16.4159L204.012 16.3349L204.227 16.1729L204.389 15.9839L204.496 15.6329V15.3089L204.442 14.8229L204.335 14.3639L204.173 13.8779L203.85 13.2569L203.581 12.8789L203.258 12.5009L202.935 12.2039L202.531 11.907L202.047 11.637L201.509 11.421L200.97 11.286L200.567 11.232H199.813Z" fill="#BE2C2F"/>
<path d="M191.334 0H191.577V3.13199L191.55 3.18599L190.984 3.42899L190.446 3.72598L189.935 4.07698L189.531 4.40098L189.181 4.67098L188.75 4.94098L188.32 5.15698L188.051 5.26498L187.754 5.29198H187.458L186.947 5.23798L186.382 5.10298L185.574 4.85998L185.036 4.75198L184.767 4.72498H183.986L183.421 4.80598L183.044 4.91398L182.748 5.07598L182.371 5.34598L182.021 5.66998L181.914 5.72398L181.86 5.83198L181.645 6.04798L181.295 6.53397L181.025 7.01997L180.729 7.58697L180.433 8.01897L180.191 8.31597L179.814 8.69396L179.357 8.88296L178.791 9.04496L178.361 9.12596L177.365 9.23396L176.746 9.36896L176.234 9.55796L175.804 9.77396L175.427 9.98996L175.104 10.233L174.889 10.503L174.619 10.962L174.404 11.394L174.162 12.123L174.054 12.7709L173.947 13.7429L173.839 14.2019L173.677 14.6879L173.516 15.0119L173.274 15.2819L173.139 15.4169L172.978 15.3899L172.278 14.9849L171.524 14.5529L170.878 14.1749L169.478 13.3649L169.048 13.1219L169.075 12.9599L169.263 12.6899L169.909 11.718L170.286 11.205L170.609 10.773L170.905 10.395L171.255 9.96296L171.551 9.61196L171.874 9.23396L172.278 8.80196L172.601 8.45096L173.543 7.50597L173.758 7.31697L174.189 6.91197L174.485 6.66897L174.889 6.31797L175.265 6.02098L175.669 5.69698L176.1 5.37298L176.477 5.10298L176.934 4.77898L177.473 4.42798L177.984 4.10398L178.657 3.69898L179.33 3.32099L180.056 2.94299L180.649 2.64599L181.618 2.21399L182.398 1.88999L183.421 1.51199L184.417 1.188L185.171 0.971996L186.463 0.647997L187.539 0.431998L188.75 0.242999L189.935 0.108L191.334 0Z" fill="#BE2C2F"/>
<path d="M211.764 39.8518L211.925 39.9058L212.571 40.2838L215.37 41.9038L215.828 42.1738L215.801 42.3088L215.451 42.8488L215.236 43.1728L214.94 43.6048L214.644 44.0098L214.321 44.4418L214.052 44.7928L213.702 45.2248L213.406 45.5758L213.083 45.9538L212.76 46.3048L212.517 46.5748L212.194 46.8988L212.006 47.1148L211.629 47.4928L211.414 47.6818L211.118 47.9788L210.902 48.1678L210.633 48.4108L210.337 48.6538L210.068 48.8968L209.799 49.1128L209.368 49.4638L208.345 50.2198L207.215 50.9758L206.65 51.3268L206.004 51.7048L205.358 52.0558L204.631 52.4338L203.904 52.7848L203.043 53.1628L202.074 53.5408L201.401 53.7838L200.324 54.1348L199.355 54.4048L198.198 54.6748L196.933 54.9178L195.802 55.0798L194.537 55.2148L193.326 55.2958L193.299 55.2688V52.1368L193.73 51.9208L194.403 51.5698L194.887 51.2458L195.641 50.6518L196.045 50.3818L196.556 50.1118L196.879 50.0038H197.525L198.09 50.0848L198.709 50.2468L199.328 50.4358L199.921 50.5438L200.62 50.5708L201.213 50.5168L201.724 50.4088L202.155 50.1928L202.612 49.8418L202.935 49.5448L203.124 49.3558L203.474 48.8968L203.716 48.5188L204.066 47.8438L204.335 47.4118L204.631 47.0338L204.927 46.7098L205.142 46.5478L205.546 46.3858L206.004 46.2508L206.623 46.1428L207.43 46.0618L208.076 45.9268L208.614 45.7378L209.045 45.5218L209.341 45.3598L209.718 45.0898L209.96 44.8198L210.176 44.4688L210.418 44.0098L210.606 43.4968L210.741 42.9838L210.822 42.4978L210.902 41.6608L211.037 41.0668L211.198 40.5808L211.36 40.2568L211.548 40.0408L211.764 39.8518Z" fill="#BE2C2F"/>
<path d="M193.326 0L193.945 0.0269999L195.21 0.134999L196.502 0.296999L197.767 0.512998L198.871 0.755997L199.921 1.026L200.97 1.34999L201.993 1.70099L203.07 2.13299L203.931 2.51099L204.712 2.88899L205.25 3.15899L205.842 3.48299L206.407 3.80698L206.811 4.04998L207.403 4.42798L207.969 4.80598L208.507 5.18398L209.018 5.56198L209.503 5.93998L209.933 6.29097L210.283 6.58797L210.579 6.83097L210.983 7.20897L211.198 7.39797L211.414 7.61397L211.629 7.80297L212.356 8.53197L212.544 8.74796L212.786 8.99096L212.975 9.20696L213.217 9.47696L213.459 9.77396L213.782 10.152L213.998 10.422L214.267 10.773L214.698 11.34L215.047 11.853L215.317 12.2309L215.747 12.9059L215.828 13.0409V13.1219L215.29 13.4189L214.644 13.7969L213.89 14.2289L213.244 14.6069L212.679 14.9309L212.033 15.3089L211.871 15.4169H211.737V15.3629L211.629 15.3089L211.387 15.0659L211.172 14.6339L210.983 14.0129L210.875 13.3919L210.795 12.6089L210.687 12.069L210.552 11.61L210.31 11.07L210.041 10.584L209.799 10.26L209.53 10.044L209.126 9.80096L208.695 9.58496L208.211 9.39596L207.672 9.26096L207.026 9.17996L206.327 9.09896L205.842 8.99096L205.358 8.82896L205.035 8.66696L204.631 8.26197L204.281 7.80297L204.012 7.34397L203.689 6.72297L203.447 6.34497L203.177 5.99398L202.854 5.64298L202.639 5.45398L202.289 5.18398L201.939 4.96798L201.67 4.85998L201.132 4.75198L200.863 4.72498H200.109L199.544 4.80598L199.005 4.94098L198.279 5.15698L197.687 5.26498L197.364 5.29198H196.933L196.583 5.18398L195.964 4.85998L195.587 4.58998L195.156 4.23898L194.672 3.88798L194.187 3.59099L193.595 3.29399L193.299 3.15899V0.0269999L193.326 0Z" fill="#BE2C2F"/>
<path d="M173.004 39.8788L173.166 39.9058L173.489 40.2298L173.704 40.6618L173.866 41.1748L173.973 41.7418L174.081 42.7408L174.216 43.3618L174.404 43.9018L174.619 44.3338L174.808 44.6578L175.077 45.0358L175.481 45.3328L175.965 45.6028L176.611 45.8728L177.284 46.0348L177.607 46.0888L178.442 46.1698L178.98 46.2778L179.545 46.4668L179.841 46.6288L179.976 46.7368L180.164 46.9528L180.379 47.1958L180.702 47.6818L180.972 48.1678L181.241 48.6808L181.591 49.1668L181.887 49.4908L182.21 49.8148L182.64 50.1388L182.99 50.3548L183.475 50.4898L183.852 50.5438L184.228 50.5708H184.551L185.117 50.5168L185.736 50.3818L186.516 50.1388L187.082 50.0308L187.378 50.0038H187.97L188.293 50.1118L188.723 50.3278L189.154 50.5978L189.558 50.9218L189.908 51.1918L190.473 51.5698L191.065 51.8938L191.55 52.1098L191.577 52.1638V55.2958L190.365 55.2148L188.831 55.0528L187.781 54.8908L187.055 54.7558L186.059 54.5398L184.928 54.2428L183.932 53.9458L182.937 53.5948L182.371 53.3788L181.456 53.0008L180.514 52.5688L179.384 52.0018L178.818 51.6778L178.038 51.2188L177.446 50.8408L176.8 50.4088L176.342 50.0848L175.831 49.7068L175.077 49.1128L174.727 48.8158L174.431 48.5728L174.108 48.2758L173.893 48.0868L173.462 47.6818L173.193 47.4118L173.112 47.3578V47.3038L173.004 47.2498L172.681 46.9258L172.493 46.7098L172.17 46.3858L171.982 46.1698L171.686 45.8458L171.443 45.5488L171.12 45.1708L170.824 44.7928L170.474 44.3608L170.205 43.9828L169.855 43.4968L169.263 42.6058L169.075 42.3088L169.048 42.1738L169.694 41.7958L170.447 41.3638L171.147 40.9588L171.793 40.5808L172.493 40.1758L173.004 39.8788Z" fill="#BE2C2F"/>
<path d="M168.106 14.6069L168.267 14.6339L168.94 15.0119L169.398 15.2819L170.797 16.0919L171.309 16.3889L171.389 16.4429L171.363 16.5239L171.093 16.6859L170.743 16.9559L170.474 17.1989L170.286 17.4149L170.044 17.7389L169.828 18.1169L169.721 18.3869L169.613 18.9539L169.586 19.2779V19.8719L169.64 20.3579L169.775 20.9519L170.017 21.7619L170.124 22.3289L170.151 22.6259V23.1659L169.99 23.5979L169.721 24.1109L169.452 24.4889L169.209 24.7859L168.913 25.1369L168.617 25.5689L168.429 25.8929L168.16 26.5139L167.998 27.0809L167.917 27.5399V27.7559L168.052 28.4309L168.213 28.9169L168.429 29.4029L168.725 29.8889L169.048 30.3209L169.29 30.5909L169.613 31.0229L169.855 31.4279L170.098 31.9409L170.151 32.1299V32.6159L170.098 33.1559L169.936 33.8309L169.721 34.5329L169.613 35.0729L169.586 35.3699V36.0449L169.667 36.6658L169.775 37.0708L169.99 37.4758L170.232 37.7998L170.474 38.0698L170.743 38.3398L171.147 38.6368L171.389 38.7988V38.8528L170.905 39.1228L170.259 39.5008L169.559 39.9058L168.913 40.2838L168.294 40.6348L168.213 40.6888L168.106 40.6618L167.46 39.3658L167.029 38.3938L166.572 37.2328L166.275 36.3959L166.006 35.5319L165.737 34.5599L165.468 33.4259L165.253 32.2919L165.064 30.9959L164.957 30.0239L164.876 29.0249V26.1629L165.037 24.5429L165.145 23.7059L165.333 22.5449L165.576 21.3839L165.872 20.2229L166.222 19.0619L166.598 17.9819L166.921 17.1719L167.217 16.4699L167.567 15.7139L168.079 14.6879L168.106 14.6069Z" fill="#BE2C2F"/>
<path d="M216.689 14.5799L216.797 14.6879L217.308 15.7139L217.712 16.6049L217.981 17.2529L218.277 18.0089L218.627 19.0079L218.95 20.0609L219.273 21.3029L219.516 22.4369L219.677 23.3819L219.839 24.6239L219.946 25.7039L220 26.2709V28.8359L219.865 30.4289L219.704 31.7249L219.516 32.8589L219.273 33.9929L218.95 35.2349L218.573 36.4498L218.197 37.5028L217.766 38.5558L217.416 39.3388L217.012 40.1758L216.797 40.5808L216.716 40.7158L216.339 40.4998L215.72 40.1488L215.074 39.7708L214.375 39.3658L213.729 38.9878L213.486 38.8528L213.459 38.7988L213.89 38.5288L214.267 38.2048L214.536 37.9348L214.563 37.8808H214.617L214.671 37.7728L214.994 37.2868L215.128 36.9628L215.236 36.4768L215.29 35.8829V35.5049L215.236 34.9649L215.074 34.2629L214.859 33.5609L214.751 32.9939L214.724 32.7509V32.0759L214.94 31.5629L215.209 31.1039L215.478 30.7259L215.801 30.3479L216.151 29.8889L216.447 29.3759L216.662 28.8899L216.824 28.4039L216.932 27.8639L216.958 27.6209L216.878 27.1079L216.716 26.5409L216.501 26.0279L216.259 25.5689L215.936 25.1099L215.64 24.7589L215.317 24.3539L215.021 23.8679L214.805 23.4359L214.724 23.1929V22.5449L214.805 21.9779L214.967 21.3569L215.128 20.8439L215.263 20.1419L215.29 19.7369V19.3859L215.236 18.8459L215.128 18.3059L214.913 17.8739L214.671 17.5229L214.401 17.2259V17.1719L214.294 17.1179L214.105 16.9289L213.702 16.6319L213.459 16.4969V16.4429L213.998 16.1459L215.29 15.3899L216.043 14.9579L216.689 14.5799Z" fill="#BE2C2F"/>
<path d="M181.887 38.8798H182.291L182.667 38.9608L183.044 39.1498L183.34 39.3928L183.556 39.6628L183.744 40.0678L183.825 40.4188V40.7698L183.744 41.1478L183.636 41.3908L183.448 41.6878L183.286 41.8768L182.99 42.0928L182.64 42.2548L182.425 42.3088L181.968 42.3358L181.645 42.2818L181.295 42.1468L181.025 41.9578L180.81 41.7688L180.568 41.4178L180.433 41.0938L180.379 40.8238V40.3918L180.487 39.9598L180.676 39.6088L180.972 39.2848L181.187 39.1228L181.51 38.9608L181.887 38.8798Z" fill="#BE2C2F"/>
<path d="M200.001 12.9599H200.378L200.89 13.0409L201.239 13.1759L201.589 13.3649L201.939 13.6349L202.155 13.8509L202.424 14.2289L202.612 14.6069V14.6609L202.531 14.6879L201.32 14.7149L201.078 14.7959L200.836 14.9849L200.701 15.2279L200.647 15.4169L200.62 17.2529L200.486 17.2799H199.786L199.759 17.2529L199.732 15.4979L199.678 15.2279L199.517 14.9579L199.302 14.7959L199.032 14.7149L197.794 14.6879L197.767 14.5799L197.983 14.1749L198.252 13.8239L198.521 13.5539L198.871 13.3109L199.248 13.1219L199.598 13.0139L200.001 12.9599Z" fill="#BE2C2F"/>
<path d="M176.719 24.1919H177.123L177.634 24.2729L178.011 24.4079V24.4889L177.203 25.2989L177.069 25.5149L177.015 25.7039V26.0279L177.096 26.2709L177.311 26.5409L178.442 27.6749L178.361 27.8099L177.876 28.2959L177.769 28.2419L176.584 27.0539L176.369 26.9189L176.207 26.8649H175.831L175.615 26.9459L175.373 27.1349L174.646 27.8639L174.566 27.8369L174.458 27.5669L174.377 27.2159L174.35 26.9999V26.5139L174.431 26.1089L174.566 25.7039L174.835 25.2449L175.158 24.8939L175.4 24.6779L175.75 24.4619L176.127 24.2999L176.45 24.2189L176.719 24.1919Z" fill="#BE2C2F"/>
<path d="M203.393 31.5359H203.877L204.335 31.6169L204.765 31.7789L205.115 31.9949L205.385 32.2109L205.6 32.4269L205.869 32.8049L206.057 33.2099L206.165 33.5609L206.219 33.9929L206.192 34.5869L206.031 34.5329L205.331 34.1279L204.577 33.6959L203.931 33.3179L202.531 32.5079L201.993 32.1839V32.1029L202.424 31.8329L202.774 31.6709L203.177 31.5629L203.393 31.5359Z" fill="#BE2C2F"/>
<path d="M201.105 33.6689L201.374 33.8039L201.993 34.1549L202.639 34.5329L204.039 35.3429L204.685 35.7209L205.277 36.0718L205.25 36.1529L204.819 36.4229L204.442 36.5849L204.012 36.6928L203.5 36.7198L203.07 36.6658L202.639 36.5308L202.182 36.2878L201.832 35.9909L201.562 35.6939L201.374 35.3969L201.239 35.1269L201.105 34.7219L201.051 34.3979V33.9119L201.078 33.6959L201.105 33.6689Z" fill="#BE2C2F"/>
<path d="M207.807 24.1919H208.049L208.318 24.2729L208.561 24.4349L208.722 24.6779L208.803 24.9479V25.1639L208.722 25.4339L208.614 25.5959L208.426 25.7849L208.157 25.8929L207.915 25.9199L207.619 25.8659L207.349 25.7039L207.188 25.4879L207.08 25.1909V24.8939L207.188 24.5969L207.403 24.3539L207.672 24.2189L207.807 24.1919Z" fill="#BE2C2F"/>
<path d="M187.997 19.0079H188.239L188.508 19.0889L188.75 19.2509L188.912 19.4939L188.993 19.7639V19.9799L188.912 20.2499L188.804 20.4119L188.616 20.6009L188.347 20.7089L188.104 20.7359L187.808 20.6819L187.539 20.5199L187.378 20.3039L187.27 20.0069V19.7099L187.378 19.4129L187.593 19.1699L187.862 19.0349L187.997 19.0079Z" fill="#BE2C2F"/>
</svg>
